<?xml version="1.0" encoding="utf-8"?>
<!-- Generator: Adobe Illustrator 17.0.2, SVG Export Plug-In . SVG Version: 6.00 Build 0)  -->
<!DOCTYPE svg PUBLIC "-//W3C//DTD SVG 1.1//EN" "http://www.w3.org/Graphics/SVG/1.1/DTD/svg11.dtd">
<svg version="1.1" id="Layer_1" xmlns="http://www.w3.org/2000/svg" xmlns:xlink="http://www.w3.org/1999/xlink" x="0px" y="0px"
	 width="23.449px" height="17.297px" viewBox="0 0 23.449 17.297" enable-background="new 0 0 23.449 17.297" xml:space="preserve">
<g>
	<g>
		<g>
			<g>
				<g>
					<g>
						<g>
							<g>
								<g>
									<path fill="#E9F6FA" d="M8.322,10.917c0,0.317-0.2,0.586-0.48,0.691H6.203c-0.281,0-0.508,0.228-0.508,0.508
										c0,0.281,0.228,0.508,0.508,0.508H9.83c0.233,0.124,0.391,0.369,0.391,0.651c0,0.281-0.157,0.525-0.389,0.65H8.947
										c-0.281,0-0.508,0.228-0.508,0.508s0.228,0.508,0.508,0.508h3.146c0.233,0.124,0.392,0.369,0.392,0.651
										c0,0.281-0.157,0.525-0.388,0.649h-0.772c-0.106,0-0.204,0.032-0.285,0.088h-0.064v0.052
										c-0.098,0.093-0.159,0.224-0.159,0.369c0,0.281,0.228,0.508,0.508,0.508h5.671c0.281,0,0.508-0.228,0.508-0.508
										s-0.228-0.508-0.508-0.508h-1.287c-0.231-0.124-0.388-0.368-0.388-0.649c0-0.282,0.159-0.528,0.392-0.651h2.319
										c0.281,0,0.508-0.228,0.508-0.508s-0.228-0.508-0.508-0.508h-3.99c-0.231-0.124-0.389-0.369-0.389-0.65
										c0-0.282,0.159-0.527,0.391-0.651h1.243c0.281,0,0.508-0.228,0.508-0.508c0-0.281-0.228-0.508-0.508-0.508h-3.391
										c-0.28-0.104-0.48-0.374-0.48-0.691c0-0.298,0.177-0.555,0.432-0.671h3.256c0.281,0,0.508-0.228,0.508-0.508
										c0-0.281-0.228-0.508-0.508-0.508H6.02c-0.281,0-0.508,0.228-0.508,0.508c0,0.281,0.228,0.508,0.508,0.508h1.87
										C8.145,10.362,8.322,10.618,8.322,10.917z"/>
								</g>
							</g>
						</g>
					</g>
				</g>
			</g>
		</g>
	</g>
	<g>
		<g>
			<g>
				<g>
					<g>
						<g>
							<g>
								<g>
									<g>
										<path fill="#E9F6FA" d="M1.688,6.243h4.136c0.313-0.085,0.544-0.371,0.544-0.711c0-0.34-0.231-0.627-0.544-0.711H3.639
											c-0.281,0-0.508-0.228-0.508-0.508s0.228-0.508,0.508-0.508h10.244c0.281,0,0.508,0.228,0.508,0.508
											S14.164,4.82,13.884,4.82h-3.096c-0.313,0.085-0.544,0.371-0.544,0.711c0,0.34,0.231,0.627,0.544,0.711h4.072
											c0.281,0,0.508,0.228,0.508,0.508c0,0.281-0.228,0.508-0.508,0.508h-1.088c-0.266,0.085-0.459,0.335-0.459,0.629
											c0,0.303,0.205,0.559,0.483,0.636L13.791,8.54h1.099c0.281,0,0.508,0.228,0.508,0.508s-0.228,0.508-0.508,0.508H5.804
											c-0.281,0-0.508-0.228-0.508-0.508S5.524,8.54,5.804,8.54h3.376C9.344,8.404,9.449,8.2,9.449,7.971
											c0-0.341-0.232-0.628-0.547-0.712H1.688c-0.281,0-0.508-0.228-0.508-0.508C1.18,6.47,1.407,6.243,1.688,6.243z"/>
									</g>
								</g>
							</g>
						</g>
					</g>
				</g>
			</g>
		</g>
		<g>
			<g>
				<g>
					<g>
						<g>
							<g>
								<g>
									<g>
										<path fill="#E9F6FA" d="M8.091,10.979h0.976c0.281,0,0.508,0.228,0.508,0.508c0,0.281-0.228,0.508-0.508,0.508H8.091
											c-0.281,0-0.508-0.228-0.508-0.508C7.583,11.206,7.81,10.979,8.091,10.979z"/>
									</g>
								</g>
							</g>
						</g>
					</g>
				</g>
			</g>
		</g>
	</g>
	<g>
		<g>
			<g>
				<g>
					<g>
						<g>
							<g>
								<g>
									<g>
										<path fill="#E9F6FA" d="M22.941,6.243h-4.136c-0.313-0.085-0.544-0.371-0.544-0.711c0-0.34,0.231-0.627,0.544-0.711h2.185
											c0.281,0,0.508-0.228,0.508-0.508s-0.228-0.508-0.508-0.508H10.745c-0.281,0-0.508,0.228-0.508,0.508
											s0.228,0.508,0.508,0.508h3.096c0.313,0.085,0.544,0.371,0.544,0.711c0,0.34-0.231,0.627-0.544,0.711H9.77
											c-0.281,0-0.508,0.228-0.508,0.508c0,0.281,0.228,0.508,0.508,0.508h1.088c0.266,0.085,0.459,0.335,0.459,0.629
											c0,0.303-0.205,0.559-0.483,0.636l0.005,0.015H9.739c-0.281,0-0.508,0.228-0.508,0.508s0.228,0.508,0.508,0.508h9.086
											c0.281,0,0.508-0.228,0.508-0.508S19.105,8.54,18.824,8.54h-3.376C15.284,8.404,15.18,8.2,15.18,7.971
											c0-0.341,0.232-0.628,0.547-0.712h7.214c0.281,0,0.508-0.228,0.508-0.508C23.449,6.47,23.221,6.243,22.941,6.243z"/>
									</g>
								</g>
							</g>
						</g>
					</g>
				</g>
			</g>
		</g>
		<g>
			<g>
				<g>
					<g>
						<g>
							<g>
								<g>
									<g>
										<path fill="#E9F6FA" d="M17.595,11.629H16.62c-0.281,0-0.508,0.228-0.508,0.508s0.228,0.508,0.508,0.508h0.976
											c0.281,0,0.508-0.228,0.508-0.508S17.876,11.629,17.595,11.629z"/>
									</g>
								</g>
							</g>
						</g>
					</g>
				</g>
			</g>
		</g>
	</g>
	<g>
		<g>
			<g>
				<g>
					<g>
						<g>
							<g>
								<g>
									<g>
										<path fill="#FFF200" d="M3.452,10.746c0.014,0,0.025-0.011,0.025-0.025v-0.107c0-0.014-0.011-0.025-0.025-0.025
											c-0.014,0-0.025,0.011-0.025,0.025v0.107C3.426,10.735,3.438,10.746,3.452,10.746z"/>
									</g>
								</g>
							</g>
						</g>
					</g>
				</g>
			</g>
		</g>
		<g>
			<g>
				<g>
					<g>
						<g>
							<g>
								<g>
									<g>
										<path fill="#FFF200" d="M3.525,10.766c0.009,0,0.017-0.005,0.022-0.013l0.054-0.093c0.007-0.012,0.003-0.028-0.009-0.035
											c-0.012-0.007-0.028-0.003-0.035,0.009l-0.054,0.093C3.496,10.74,3.5,10.756,3.513,10.763
											C3.517,10.765,3.521,10.766,3.525,10.766z"/>
									</g>
								</g>
							</g>
						</g>
					</g>
				</g>
			</g>
		</g>
		<g>
			<g>
				<g>
					<g>
						<g>
							<g>
								<g>
									<g>
										<path fill="#FFF200" d="M3.579,10.82c0.004,0,0.009-0.001,0.013-0.003l0.093-0.054c0.012-0.007,0.016-0.023,0.009-0.035
											c-0.007-0.012-0.023-0.016-0.035-0.009l-0.093,0.054c-0.012,0.007-0.016,0.023-0.009,0.035
											C3.562,10.815,3.57,10.82,3.579,10.82z"/>
									</g>
								</g>
							</g>
						</g>
					</g>
				</g>
			</g>
		</g>
		<g>
			<g>
				<g>
					<g>
						<g>
							<g>
								<g>
									<g>
										<path fill="#FFF200" d="M3.599,10.894h0.107c0.014,0,0.025-0.011,0.025-0.025s-0.011-0.025-0.025-0.025H3.599
											c-0.014,0-0.025,0.011-0.025,0.025S3.585,10.894,3.599,10.894z"/>
									</g>
								</g>
							</g>
						</g>
					</g>
				</g>
			</g>
		</g>
		<g>
			<g>
				<g>
					<g>
						<g>
							<g>
								<g>
									<g>
										<path fill="#FFF200" d="M3.672,11.021c0.009,0,0.017-0.005,0.022-0.013c0.007-0.012,0.003-0.028-0.009-0.035L3.592,10.92
											c-0.012-0.007-0.028-0.003-0.035,0.009c-0.007,0.012-0.003,0.028,0.009,0.035l0.093,0.054
											C3.663,11.02,3.667,11.021,3.672,11.021z"/>
									</g>
								</g>
							</g>
						</g>
					</g>
				</g>
			</g>
		</g>
		<g>
			<g>
				<g>
					<g>
						<g>
							<g>
								<g>
									<g>
										<path fill="#FFF200" d="M3.579,11.114c0.004,0,0.009-0.001,0.013-0.003c0.012-0.007,0.016-0.023,0.009-0.035l-0.054-0.093
											c-0.007-0.012-0.023-0.016-0.035-0.009c-0.012,0.007-0.016,0.023-0.009,0.035l0.054,0.093
											C3.561,11.109,3.57,11.114,3.579,11.114z"/>
									</g>
								</g>
							</g>
						</g>
					</g>
				</g>
			</g>
		</g>
		<g>
			<g>
				<g>
					<g>
						<g>
							<g>
								<g>
									<g>
										<path fill="#FFF200" d="M3.452,11.148c0.014,0,0.025-0.011,0.025-0.025v-0.107c0-0.014-0.011-0.025-0.025-0.025
											c-0.014,0-0.025,0.011-0.025,0.025v0.107C3.426,11.136,3.438,11.148,3.452,11.148z"/>
									</g>
								</g>
							</g>
						</g>
					</g>
				</g>
			</g>
		</g>
		<g>
			<g>
				<g>
					<g>
						<g>
							<g>
								<g>
									<g>
										<path fill="#FFF200" d="M3.325,11.114c0.009,0,0.017-0.005,0.022-0.013L3.4,11.008c0.007-0.012,0.003-0.028-0.009-0.035
											c-0.012-0.007-0.028-0.003-0.035,0.009l-0.054,0.093C3.296,11.088,3.3,11.103,3.312,11.11
											C3.316,11.113,3.32,11.114,3.325,11.114z"/>
									</g>
								</g>
							</g>
						</g>
					</g>
				</g>
			</g>
		</g>
		<g>
			<g>
				<g>
					<g>
						<g>
							<g>
								<g>
									<g>
										<path fill="#FFF200" d="M3.232,11.021c0.004,0,0.009-0.001,0.013-0.003l0.093-0.054c0.012-0.007,0.016-0.023,0.009-0.035
											c-0.007-0.012-0.023-0.016-0.035-0.009l-0.093,0.054c-0.012,0.007-0.016,0.023-0.009,0.035
											C3.214,11.016,3.223,11.021,3.232,11.021z"/>
									</g>
								</g>
							</g>
						</g>
					</g>
				</g>
			</g>
		</g>
		<g>
			<g>
				<g>
					<g>
						<g>
							<g>
								<g>
									<g>
										<path fill="#FFF200" d="M3.197,10.894h0.107c0.014,0,0.025-0.011,0.025-0.025s-0.011-0.025-0.025-0.025H3.197
											c-0.014,0-0.025,0.011-0.025,0.025S3.183,10.894,3.197,10.894z"/>
									</g>
								</g>
							</g>
						</g>
					</g>
				</g>
			</g>
		</g>
		<g>
			<g>
				<g>
					<g>
						<g>
							<g>
								<g>
									<g>
										<path fill="#FFF200" d="M3.324,10.82c0.009,0,0.017-0.005,0.022-0.013c0.007-0.012,0.003-0.028-0.009-0.035l-0.093-0.054
											c-0.012-0.007-0.028-0.003-0.035,0.009c-0.007,0.012-0.003,0.028,0.009,0.035l0.093,0.054
											C3.315,10.819,3.32,10.82,3.324,10.82z"/>
									</g>
								</g>
							</g>
						</g>
					</g>
				</g>
			</g>
		</g>
		<g>
			<g>
				<g>
					<g>
						<g>
							<g>
								<g>
									<g>
										<path fill="#FFF200" d="M3.378,10.766c0.004,0,0.009-0.001,0.013-0.003c0.012-0.007,0.016-0.023,0.009-0.035l-0.054-0.093
											c-0.007-0.012-0.023-0.016-0.035-0.009c-0.012,0.007-0.016,0.023-0.009,0.035l0.054,0.093
											C3.361,10.762,3.369,10.766,3.378,10.766z"/>
									</g>
								</g>
							</g>
						</g>
					</g>
				</g>
			</g>
		</g>
	</g>
	<g>
		<g>
			<g>
				<g>
					<g>
						<g>
							<g>
								<g>
									<g>
										<path fill="#D6569F" d="M7.045,2.844c0.039,0,0.071-0.032,0.071-0.071V2.538c0-0.039-0.032-0.071-0.071-0.071
											c-0.039,0-0.071,0.032-0.071,0.071v0.235C6.974,2.813,7.006,2.844,7.045,2.844z"/>
									</g>
								</g>
							</g>
						</g>
					</g>
				</g>
			</g>
		</g>
		<g>
			<g>
				<g>
					<g>
						<g>
							<g>
								<g>
									<g>
										<path fill="#D6569F" d="M7.207,2.888c0.025,0,0.049-0.013,0.062-0.036l0.118-0.204c0.02-0.034,0.008-0.078-0.026-0.097
											c-0.034-0.02-0.078-0.008-0.097,0.026L7.145,2.781c-0.02,0.034-0.008,0.078,0.026,0.097
											C7.182,2.885,7.195,2.888,7.207,2.888z"/>
									</g>
								</g>
							</g>
						</g>
					</g>
				</g>
			</g>
		</g>
		<g>
			<g>
				<g>
					<g>
						<g>
							<g>
								<g>
									<g>
										<path fill="#D6569F" d="M7.325,3.006c0.012,0,0.024-0.003,0.036-0.01l0.204-0.118c0.034-0.02,0.046-0.063,0.026-0.097
											c-0.02-0.034-0.063-0.046-0.097-0.026L7.29,2.873c-0.034,0.02-0.046,0.063-0.026,0.097
											C7.277,2.993,7.301,3.006,7.325,3.006z"/>
									</g>
								</g>
							</g>
						</g>
					</g>
				</g>
			</g>
		</g>
		<g>
			<g>
				<g>
					<g>
						<g>
							<g>
								<g>
									<g>
										<path fill="#D6569F" d="M7.369,3.168h0.235c0.039,0,0.071-0.032,0.071-0.071S7.643,3.026,7.604,3.026H7.369
											c-0.039,0-0.071,0.032-0.071,0.071S7.329,3.168,7.369,3.168z"/>
									</g>
								</g>
							</g>
						</g>
					</g>
				</g>
			</g>
		</g>
		<g>
			<g>
				<g>
					<g>
						<g>
							<g>
								<g>
									<g>
										<path fill="#D6569F" d="M7.529,3.448c0.025,0,0.049-0.013,0.062-0.036c0.02-0.034,0.008-0.078-0.026-0.097L7.361,3.197
											c-0.034-0.02-0.078-0.008-0.097,0.026C7.244,3.257,7.256,3.301,7.29,3.32l0.204,0.118
											C7.505,3.445,7.517,3.448,7.529,3.448z"/>
									</g>
								</g>
							</g>
						</g>
					</g>
				</g>
			</g>
		</g>
		<g>
			<g>
				<g>
					<g>
						<g>
							<g>
								<g>
									<g>
										<path fill="#D6569F" d="M7.325,3.652c0.012,0,0.024-0.003,0.036-0.01c0.034-0.02,0.046-0.063,0.026-0.097L7.268,3.342
											c-0.02-0.034-0.063-0.046-0.097-0.026c-0.034,0.02-0.046,0.063-0.026,0.097l0.118,0.204
											C7.276,3.639,7.3,3.652,7.325,3.652z"/>
									</g>
								</g>
							</g>
						</g>
					</g>
				</g>
			</g>
		</g>
		<g>
			<g>
				<g>
					<g>
						<g>
							<g>
								<g>
									<g>
										<path fill="#D6569F" d="M7.045,3.727c0.039,0,0.071-0.032,0.071-0.071V3.421c0-0.039-0.032-0.071-0.071-0.071
											c-0.039,0-0.071,0.032-0.071,0.071v0.235C6.974,3.695,7.006,3.727,7.045,3.727z"/>
									</g>
								</g>
							</g>
						</g>
					</g>
				</g>
			</g>
		</g>
		<g>
			<g>
				<g>
					<g>
						<g>
							<g>
								<g>
									<g>
										<path fill="#D6569F" d="M6.765,3.652c0.025,0,0.049-0.013,0.062-0.036l0.118-0.204c0.02-0.034,0.008-0.078-0.026-0.097
											c-0.034-0.02-0.078-0.008-0.097,0.026L6.704,3.545C6.684,3.58,6.696,3.623,6.73,3.643
											C6.741,3.649,6.753,3.652,6.765,3.652z"/>
									</g>
								</g>
							</g>
						</g>
					</g>
				</g>
			</g>
		</g>
		<g>
			<g>
				<g>
					<g>
						<g>
							<g>
								<g>
									<g>
										<path fill="#D6569F" d="M6.561,3.448c0.012,0,0.024-0.003,0.036-0.01L6.8,3.32c0.034-0.02,0.046-0.063,0.026-0.097
											c-0.02-0.034-0.063-0.046-0.097-0.026L6.525,3.315c-0.034,0.02-0.046,0.063-0.026,0.097
											C6.512,3.435,6.536,3.448,6.561,3.448z"/>
									</g>
								</g>
							</g>
						</g>
					</g>
				</g>
			</g>
		</g>
		<g>
			<g>
				<g>
					<g>
						<g>
							<g>
								<g>
									<g>
										<path fill="#D6569F" d="M6.486,3.168h0.235c0.039,0,0.071-0.032,0.071-0.071S6.761,3.026,6.721,3.026H6.486
											c-0.039,0-0.071,0.032-0.071,0.071S6.447,3.168,6.486,3.168z"/>
									</g>
								</g>
							</g>
						</g>
					</g>
				</g>
			</g>
		</g>
		<g>
			<g>
				<g>
					<g>
						<g>
							<g>
								<g>
									<g>
										<path fill="#D6569F" d="M6.765,3.006c0.025,0,0.049-0.013,0.062-0.036C6.846,2.937,6.834,2.893,6.8,2.873L6.596,2.756
											c-0.034-0.02-0.078-0.008-0.097,0.026c-0.02,0.034-0.008,0.078,0.026,0.097l0.204,0.118
											C6.74,3.003,6.752,3.006,6.765,3.006z"/>
									</g>
								</g>
							</g>
						</g>
					</g>
				</g>
			</g>
		</g>
		<g>
			<g>
				<g>
					<g>
						<g>
							<g>
								<g>
									<g>
										<path fill="#D6569F" d="M6.883,2.888c0.012,0,0.024-0.003,0.036-0.01c0.034-0.02,0.046-0.063,0.026-0.097L6.827,2.577
											C6.807,2.543,6.764,2.531,6.73,2.551c-0.034,0.02-0.046,0.063-0.026,0.097l0.118,0.204
											C6.835,2.875,6.859,2.888,6.883,2.888z"/>
									</g>
								</g>
							</g>
						</g>
					</g>
				</g>
			</g>
		</g>
	</g>
	<g>
		<g>
			<g>
				<g>
					<g>
						<g>
							<g>
								<g>
									<g>
										<path fill="#39B54A" d="M5.488,0.477c0.028,0,0.051-0.023,0.051-0.051V0.301c0-0.028-0.023-0.051-0.051-0.051
											c-0.028,0-0.051,0.023-0.051,0.051v0.125C5.437,0.454,5.46,0.477,5.488,0.477z"/>
									</g>
								</g>
							</g>
						</g>
					</g>
				</g>
			</g>
		</g>
		<g>
			<g>
				<g>
					<g>
						<g>
							<g>
								<g>
									<g>
										<path fill="#39B54A" d="M5.542,0.519h0.125c0.028,0,0.051-0.023,0.051-0.051c0-0.028-0.023-0.051-0.051-0.051H5.542
											c-0.028,0-0.051,0.023-0.051,0.051C5.491,0.496,5.514,0.519,5.542,0.519z"/>
									</g>
								</g>
							</g>
						</g>
					</g>
				</g>
			</g>
		</g>
		<g>
			<g>
				<g>
					<g>
						<g>
							<g>
								<g>
									<g>
										<path fill="#39B54A" d="M5.5,0.698c0.028,0,0.051-0.023,0.051-0.051V0.522c0-0.028-0.023-0.051-0.051-0.051
											S5.449,0.494,5.449,0.522v0.125C5.449,0.675,5.472,0.698,5.5,0.698z"/>
									</g>
								</g>
							</g>
						</g>
					</g>
				</g>
			</g>
		</g>
		<g>
			<g>
				<g>
					<g>
						<g>
							<g>
								<g>
									<g>
										<path fill="#39B54A" d="M5.321,0.531h0.125c0.028,0,0.051-0.023,0.051-0.051S5.474,0.429,5.446,0.429H5.321
											c-0.028,0-0.051,0.023-0.051,0.051S5.293,0.531,5.321,0.531z"/>
									</g>
								</g>
							</g>
						</g>
					</g>
				</g>
			</g>
		</g>
	</g>
	<g>
		<g>
			<g>
				<g>
					<g>
						<g>
							<g>
								<g>
									<g>
										<path fill="#662D91" d="M3.356,7.892c0.028,0,0.051-0.023,0.051-0.051V7.716c0-0.028-0.023-0.051-0.051-0.051
											S3.305,7.687,3.305,7.716v0.125C3.305,7.869,3.328,7.892,3.356,7.892z"/>
									</g>
								</g>
							</g>
						</g>
					</g>
				</g>
			</g>
		</g>
		<g>
			<g>
				<g>
					<g>
						<g>
							<g>
								<g>
									<g>
										<path fill="#662D91" d="M3.41,7.934h0.125c0.028,0,0.051-0.023,0.051-0.051c0-0.028-0.023-0.051-0.051-0.051H3.41
											c-0.028,0-0.051,0.023-0.051,0.051C3.359,7.911,3.382,7.934,3.41,7.934z"/>
									</g>
								</g>
							</g>
						</g>
					</g>
				</g>
			</g>
		</g>
		<g>
			<g>
				<g>
					<g>
						<g>
							<g>
								<g>
									<g>
										<path fill="#662D91" d="M3.368,8.113c0.028,0,0.051-0.023,0.051-0.051V7.937c0-0.028-0.023-0.051-0.051-0.051
											S3.317,7.908,3.317,7.937v0.125C3.317,8.09,3.34,8.113,3.368,8.113z"/>
									</g>
								</g>
							</g>
						</g>
					</g>
				</g>
			</g>
		</g>
		<g>
			<g>
				<g>
					<g>
						<g>
							<g>
								<g>
									<g>
										<path fill="#662D91" d="M3.189,7.946h0.125c0.028,0,0.051-0.023,0.051-0.051c0-0.028-0.023-0.051-0.051-0.051H3.189
											c-0.028,0-0.051,0.023-0.051,0.051C3.138,7.923,3.161,7.946,3.189,7.946z"/>
									</g>
								</g>
							</g>
						</g>
					</g>
				</g>
			</g>
		</g>
	</g>
	<g>
		<g>
			<g>
				<g>
					<g>
						<g>
							<g>
								<g>
									<g>
										<g>
											<path fill="#E9F6FA" d="M2.093,14.913h5.183c0.281,0,0.508-0.228,0.508-0.508s-0.228-0.508-0.508-0.508H2.093
												c-0.281,0-0.508,0.228-0.508,0.508S1.812,14.913,2.093,14.913z"/>
										</g>
									</g>
								</g>
							</g>
						</g>
					</g>
				</g>
			</g>
		</g>
		<g>
			<g>
				<g>
					<g>
						<g>
							<g>
								<g>
									<g>
										<g>
											<path fill="#E9F6FA" d="M3.7,12.718h4.085c0.281,0,0.508-0.228,0.508-0.508c0-0.281-0.228-0.508-0.508-0.508H3.7
												c-0.281,0-0.508,0.228-0.508,0.508C3.191,12.49,3.419,12.718,3.7,12.718z"/>
										</g>
									</g>
								</g>
							</g>
						</g>
					</g>
				</g>
			</g>
		</g>
		<g>
			<g>
				<g>
					<g>
						<g>
							<g>
								<g>
									<g>
										<g>
											<path fill="#E9F6FA" d="M3.19,17.292h3.903c0.281,0,0.508-0.228,0.508-0.508c0-0.281-0.228-0.508-0.508-0.508H3.19
												c-0.281,0-0.508,0.228-0.508,0.508C2.682,17.064,2.909,17.292,3.19,17.292z"/>
										</g>
									</g>
								</g>
							</g>
						</g>
					</g>
				</g>
			</g>
		</g>
		<g>
			<g>
				<g>
					<g>
						<g>
							<g>
								<g>
									<g>
										<g>
											<path fill="#E9F6FA" d="M7.175,17.292h3.903c0.281,0,0.508-0.228,0.508-0.508c0-0.281-0.228-0.508-0.508-0.508H7.175
												c-0.281,0-0.508,0.228-0.508,0.508C6.667,17.064,6.894,17.292,7.175,17.292z"/>
										</g>
									</g>
								</g>
							</g>
						</g>
					</g>
				</g>
			</g>
		</g>
		<g>
			<g>
				<g>
					<g>
						<g>
							<g>
								<g>
									<g>
										<g>
											<path fill="#E9F6FA" d="M0.508,17.292h0.994c0.281,0,0.508-0.228,0.508-0.508c0-0.281-0.228-0.508-0.508-0.508H0.508
												C0.228,16.275,0,16.503,0,16.783C0,17.064,0.228,17.292,0.508,17.292z"/>
										</g>
									</g>
								</g>
							</g>
						</g>
					</g>
				</g>
			</g>
		</g>
	</g>
	<g>
		<g>
			<g>
				<g>
					<g>
						<g>
							<g>
								<g>
									<g>
										<path fill="#8DC63F" d="M2.378,13.32c0.051,0,0.091-0.041,0.091-0.091v-0.148c0-0.051-0.041-0.091-0.091-0.091
											s-0.091,0.041-0.091,0.091v0.148C2.286,13.279,2.327,13.32,2.378,13.32z"/>
									</g>
								</g>
							</g>
						</g>
					</g>
				</g>
			</g>
		</g>
		<g>
			<g>
				<g>
					<g>
						<g>
							<g>
								<g>
									<g>
										<path fill="#8DC63F" d="M2.441,13.37h0.148c0.051,0,0.091-0.041,0.091-0.091s-0.041-0.091-0.091-0.091H2.441
											c-0.051,0-0.091,0.041-0.091,0.091S2.391,13.37,2.441,13.37z"/>
									</g>
								</g>
							</g>
						</g>
					</g>
				</g>
			</g>
		</g>
		<g>
			<g>
				<g>
					<g>
						<g>
							<g>
								<g>
									<g>
										<path fill="#8DC63F" d="M2.392,13.581c0.051,0,0.091-0.041,0.091-0.091v-0.148c0-0.051-0.041-0.091-0.091-0.091
											S2.3,13.291,2.3,13.342v0.148C2.3,13.54,2.341,13.581,2.392,13.581z"/>
									</g>
								</g>
							</g>
						</g>
					</g>
				</g>
			</g>
		</g>
		<g>
			<g>
				<g>
					<g>
						<g>
							<g>
								<g>
									<g>
										<path fill="#8DC63F" d="M2.18,13.384h0.148c0.051,0,0.091-0.041,0.091-0.091c0-0.051-0.041-0.091-0.091-0.091H2.18
											c-0.051,0-0.091,0.041-0.091,0.091C2.089,13.343,2.13,13.384,2.18,13.384z"/>
									</g>
								</g>
							</g>
						</g>
					</g>
				</g>
			</g>
		</g>
	</g>
	<g>
		<g>
			<g>
				<g>
					<g>
						<g>
							<g>
								<g>
									<g>
										<path fill="#3A2F85" d="M12.336,3.132c0.011,0,0.02-0.009,0.02-0.02V3.056c0-0.011-0.009-0.02-0.02-0.02
											c-0.011,0-0.02,0.009-0.02,0.02v0.056C12.316,3.123,12.325,3.132,12.336,3.132z"/>
									</g>
								</g>
							</g>
						</g>
					</g>
				</g>
			</g>
		</g>
		<g>
			<g>
				<g>
					<g>
						<g>
							<g>
								<g>
									<g>
										<path fill="#3A2F85" d="M12.374,3.142c0.007,0,0.014-0.004,0.018-0.01l0.028-0.048c0.006-0.01,0.002-0.022-0.007-0.028
											c-0.01-0.006-0.022-0.002-0.028,0.007l-0.028,0.048c-0.006,0.01-0.002,0.022,0.007,0.028
											C12.367,3.142,12.371,3.142,12.374,3.142z"/>
									</g>
								</g>
							</g>
						</g>
					</g>
				</g>
			</g>
		</g>
		<g>
			<g>
				<g>
					<g>
						<g>
							<g>
								<g>
									<g>
										<path fill="#3A2F85" d="M12.402,3.17c0.003,0,0.007-0.001,0.01-0.003l0.048-0.028c0.01-0.006,0.013-0.018,0.007-0.028
											c-0.006-0.01-0.018-0.013-0.028-0.007l-0.048,0.028c-0.01,0.006-0.013,0.018-0.007,0.028
											C12.389,3.167,12.395,3.17,12.402,3.17z"/>
									</g>
								</g>
							</g>
						</g>
					</g>
				</g>
			</g>
		</g>
		<g>
			<g>
				<g>
					<g>
						<g>
							<g>
								<g>
									<g>
										<path fill="#3A2F85" d="M12.413,3.209h0.056c0.011,0,0.02-0.009,0.02-0.02s-0.009-0.02-0.02-0.02h-0.056
											c-0.011,0-0.02,0.009-0.02,0.02S12.401,3.209,12.413,3.209z"/>
									</g>
								</g>
							</g>
						</g>
					</g>
				</g>
			</g>
		</g>
		<g>
			<g>
				<g>
					<g>
						<g>
							<g>
								<g>
									<g>
										<path fill="#3A2F85" d="M12.451,3.275c0.007,0,0.014-0.004,0.018-0.01c0.006-0.01,0.002-0.022-0.007-0.028l-0.048-0.028
											c-0.01-0.006-0.022-0.002-0.028,0.007c-0.006,0.01-0.002,0.022,0.007,0.028l0.048,0.028
											C12.444,3.274,12.447,3.275,12.451,3.275z"/>
									</g>
								</g>
							</g>
						</g>
					</g>
				</g>
			</g>
		</g>
		<g>
			<g>
				<g>
					<g>
						<g>
							<g>
								<g>
									<g>
										<path fill="#3A2F85" d="M12.402,3.323c0.003,0,0.007-0.001,0.01-0.003c0.01-0.006,0.013-0.018,0.007-0.028l-0.028-0.048
											c-0.006-0.01-0.018-0.013-0.028-0.007c-0.01,0.006-0.013,0.018-0.007,0.028l0.028,0.048
											C12.388,3.32,12.395,3.323,12.402,3.323z"/>
									</g>
								</g>
							</g>
						</g>
					</g>
				</g>
			</g>
		</g>
		<g>
			<g>
				<g>
					<g>
						<g>
							<g>
								<g>
									<g>
										<path fill="#3A2F85" d="M12.336,3.341c0.011,0,0.02-0.009,0.02-0.02V3.265c0-0.011-0.009-0.02-0.02-0.02
											c-0.011,0-0.02,0.009-0.02,0.02v0.056C12.316,3.332,12.325,3.341,12.336,3.341z"/>
									</g>
								</g>
							</g>
						</g>
					</g>
				</g>
			</g>
		</g>
		<g>
			<g>
				<g>
					<g>
						<g>
							<g>
								<g>
									<g>
										<path fill="#3A2F85" d="M12.27,3.323c0.007,0,0.014-0.004,0.018-0.01l0.028-0.048c0.006-0.01,0.002-0.022-0.007-0.028
											c-0.01-0.006-0.022-0.002-0.028,0.007l-0.028,0.048c-0.006,0.01-0.002,0.022,0.007,0.028
											C12.263,3.322,12.266,3.323,12.27,3.323z"/>
									</g>
								</g>
							</g>
						</g>
					</g>
				</g>
			</g>
		</g>
		<g>
			<g>
				<g>
					<g>
						<g>
							<g>
								<g>
									<g>
										<path fill="#3A2F85" d="M12.222,3.275c0.003,0,0.007-0.001,0.01-0.003l0.048-0.028c0.01-0.006,0.013-0.018,0.007-0.028
											c-0.006-0.01-0.018-0.013-0.028-0.007l-0.048,0.028c-0.01,0.006-0.013,0.018-0.007,0.028
											C12.208,3.271,12.215,3.275,12.222,3.275z"/>
									</g>
								</g>
							</g>
						</g>
					</g>
				</g>
			</g>
		</g>
		<g>
			<g>
				<g>
					<g>
						<g>
							<g>
								<g>
									<g>
										<path fill="#3A2F85" d="M12.204,3.209h0.056c0.011,0,0.02-0.009,0.02-0.02s-0.009-0.02-0.02-0.02h-0.056
											c-0.011,0-0.02,0.009-0.02,0.02S12.193,3.209,12.204,3.209z"/>
									</g>
								</g>
							</g>
						</g>
					</g>
				</g>
			</g>
		</g>
		<g>
			<g>
				<g>
					<g>
						<g>
							<g>
								<g>
									<g>
										<path fill="#3A2F85" d="M12.27,3.17c0.007,0,0.014-0.004,0.018-0.01c0.006-0.01,0.002-0.022-0.007-0.028l-0.048-0.028
											c-0.01-0.006-0.022-0.002-0.028,0.007c-0.006,0.01-0.002,0.022,0.007,0.028l0.048,0.028
											C12.263,3.17,12.266,3.17,12.27,3.17z"/>
									</g>
								</g>
							</g>
						</g>
					</g>
				</g>
			</g>
		</g>
		<g>
			<g>
				<g>
					<g>
						<g>
							<g>
								<g>
									<g>
										<path fill="#3A2F85" d="M12.298,3.142c0.003,0,0.007-0.001,0.01-0.003c0.01-0.006,0.013-0.018,0.007-0.028l-0.028-0.048
											c-0.006-0.01-0.018-0.013-0.028-0.007c-0.01,0.006-0.013,0.018-0.007,0.028l0.028,0.048
											C12.284,3.139,12.291,3.142,12.298,3.142z"/>
									</g>
								</g>
							</g>
						</g>
					</g>
				</g>
			</g>
		</g>
	</g>
	<g>
		<g>
			<g>
				<g>
					<g>
						<g>
							<g>
								<g>
									<g>
										<path fill="#B4E1F3" d="M2.516,6.033c0.056,0,0.102-0.046,0.102-0.102c0-0.056-0.046-0.102-0.102-0.102
											c-0.28,0-0.508-0.228-0.508-0.508c0-0.118,0.039-0.228,0.113-0.319C2.155,4.959,2.149,4.895,2.105,4.86
											C2.061,4.824,1.997,4.831,1.962,4.875C1.86,5.001,1.804,5.16,1.804,5.322C1.804,5.714,2.123,6.033,2.516,6.033z"/>
									</g>
								</g>
							</g>
						</g>
					</g>
				</g>
			</g>
		</g>
		<g>
			<g>
				<g>
					<g>
						<g>
							<g>
								<g>
									<g>
										<path fill="#B4E1F3" d="M2.282,4.86c0.013,0,0.026-0.003,0.039-0.008C2.342,4.843,2.364,4.836,2.386,4.83
											c0.054-0.014,0.087-0.07,0.073-0.124c-0.014-0.054-0.07-0.087-0.124-0.073C2.303,4.642,2.272,4.652,2.243,4.665
											C2.191,4.686,2.166,4.746,2.188,4.797C2.204,4.836,2.242,4.86,2.282,4.86z"/>
									</g>
								</g>
							</g>
						</g>
					</g>
				</g>
			</g>
		</g>
		<g>
			<g>
				<g>
					<g>
						<g>
							<g>
								<g>
									<g>
										<path fill="#B4E1F3" d="M2.937,5.864c0.025,0,0.051-0.009,0.07-0.028c0.142-0.136,0.22-0.318,0.22-0.514
											c0-0.352-0.262-0.655-0.61-0.704C2.562,4.609,2.51,4.648,2.502,4.704C2.494,4.759,2.533,4.811,2.588,4.819
											C2.837,4.854,3.024,5.07,3.024,5.322c0,0.14-0.056,0.27-0.157,0.367C2.827,5.728,2.825,5.792,2.864,5.833
											C2.884,5.854,2.911,5.864,2.937,5.864z"/>
									</g>
								</g>
							</g>
						</g>
					</g>
				</g>
			</g>
		</g>
	</g>
	<g>
		<g>
			<g>
				<g>
					<g>
						<g>
							<g>
								<g>
									<g>
										<path fill="#B4E1F3" d="M8.618,1.417c0.056,0,0.102-0.046,0.102-0.102c0-0.056-0.046-0.102-0.102-0.102
											c-0.28,0-0.508-0.228-0.508-0.508c0-0.117,0.039-0.228,0.113-0.319c0.035-0.044,0.028-0.108-0.015-0.143
											C8.163,0.208,8.099,0.215,8.064,0.259C7.962,0.385,7.906,0.543,7.906,0.705C7.906,1.098,8.226,1.417,8.618,1.417z"/>
									</g>
								</g>
							</g>
						</g>
					</g>
				</g>
			</g>
		</g>
		<g>
			<g>
				<g>
					<g>
						<g>
							<g>
								<g>
									<g>
										<path fill="#B4E1F3" d="M8.384,0.244c0.013,0,0.026-0.003,0.039-0.008C8.444,0.227,8.466,0.22,8.488,0.214
											C8.543,0.2,8.575,0.144,8.561,0.09c-0.014-0.054-0.07-0.087-0.124-0.073C8.406,0.025,8.375,0.036,8.345,0.048
											C8.293,0.07,8.268,0.129,8.29,0.181C8.306,0.22,8.344,0.244,8.384,0.244z"/>
									</g>
								</g>
							</g>
						</g>
					</g>
				</g>
			</g>
		</g>
		<g>
			<g>
				<g>
					<g>
						<g>
							<g>
								<g>
									<g>
										<path fill="#B4E1F3" d="M9.04,1.248c0.025,0,0.051-0.009,0.07-0.028c0.142-0.136,0.22-0.318,0.22-0.514
											c0-0.352-0.262-0.655-0.61-0.704C8.664-0.007,8.612,0.032,8.604,0.087C8.596,0.143,8.635,0.194,8.691,0.202
											c0.248,0.035,0.436,0.252,0.436,0.503c0,0.14-0.056,0.27-0.157,0.367C8.929,1.111,8.927,1.176,8.966,1.216
											C8.986,1.237,9.013,1.248,9.04,1.248z"/>
									</g>
								</g>
							</g>
						</g>
					</g>
				</g>
			</g>
		</g>
	</g>
	<g>
		<g>
			<g>
				<g>
					<g>
						<g>
							<g>
								<g>
									<g>
										<path fill="#FFDE17" d="M13.311,2.057c0.051,0,0.091-0.041,0.091-0.091V1.582c0-0.051-0.041-0.091-0.091-0.091
											s-0.091,0.041-0.091,0.091v0.383C13.219,2.016,13.26,2.057,13.311,2.057z"/>
									</g>
								</g>
							</g>
						</g>
					</g>
				</g>
			</g>
		</g>
		<g>
			<g>
				<g>
					<g>
						<g>
							<g>
								<g>
									<g>
										<path fill="#FFDE17" d="M13.475,2.184h0.383c0.051,0,0.091-0.041,0.091-0.091s-0.041-0.091-0.091-0.091h-0.383
											c-0.051,0-0.091,0.041-0.091,0.091S13.424,2.184,13.475,2.184z"/>
									</g>
								</g>
							</g>
						</g>
					</g>
				</g>
			</g>
		</g>
		<g>
			<g>
				<g>
					<g>
						<g>
							<g>
								<g>
									<g>
										<path fill="#FFDE17" d="M13.347,2.731c0.051,0,0.091-0.041,0.091-0.091V2.257c0-0.051-0.041-0.091-0.091-0.091
											s-0.091,0.041-0.091,0.091v0.383C13.256,2.69,13.297,2.731,13.347,2.731z"/>
									</g>
								</g>
							</g>
						</g>
					</g>
				</g>
			</g>
		</g>
		<g>
			<g>
				<g>
					<g>
						<g>
							<g>
								<g>
									<g>
										<path fill="#FFDE17" d="M12.8,2.221h0.383c0.051,0,0.091-0.041,0.091-0.091c0-0.051-0.041-0.091-0.091-0.091H12.8
											c-0.051,0-0.091,0.041-0.091,0.091C12.709,2.18,12.75,2.221,12.8,2.221z"/>
									</g>
								</g>
							</g>
						</g>
					</g>
				</g>
			</g>
		</g>
	</g>
	<g>
		<g>
			<g>
				<g>
					<g>
						<g>
							<g>
								<g>
									<g>
										<path fill="#EE2A7B" d="M13.631,14.43c0.028,0,0.051-0.023,0.051-0.051v-0.125c0-0.028-0.023-0.051-0.051-0.051
											s-0.051,0.023-0.051,0.051v0.125C13.58,14.407,13.603,14.43,13.631,14.43z"/>
									</g>
								</g>
							</g>
						</g>
					</g>
				</g>
			</g>
		</g>
		<g>
			<g>
				<g>
					<g>
						<g>
							<g>
								<g>
									<g>
										<path fill="#EE2A7B" d="M13.685,14.472h0.125c0.028,0,0.051-0.023,0.051-0.051c0-0.028-0.023-0.051-0.051-0.051h-0.125
											c-0.028,0-0.051,0.023-0.051,0.051C13.634,14.449,13.657,14.472,13.685,14.472z"/>
									</g>
								</g>
							</g>
						</g>
					</g>
				</g>
			</g>
		</g>
		<g>
			<g>
				<g>
					<g>
						<g>
							<g>
								<g>
									<g>
										<path fill="#EE2A7B" d="M13.643,14.651c0.028,0,0.051-0.023,0.051-0.051v-0.125c0-0.028-0.023-0.051-0.051-0.051
											s-0.051,0.023-0.051,0.051V14.6C13.592,14.628,13.615,14.651,13.643,14.651z"/>
									</g>
								</g>
							</g>
						</g>
					</g>
				</g>
			</g>
		</g>
		<g>
			<g>
				<g>
					<g>
						<g>
							<g>
								<g>
									<g>
										<path fill="#EE2A7B" d="M13.464,14.484h0.125c0.028,0,0.051-0.023,0.051-0.051s-0.023-0.051-0.051-0.051h-0.125
											c-0.028,0-0.051,0.023-0.051,0.051S13.436,14.484,13.464,14.484z"/>
									</g>
								</g>
							</g>
						</g>
					</g>
				</g>
			</g>
		</g>
	</g>
	<g>
		<g>
			<g>
				<g>
					<g>
						<g>
							<g>
								<g>
									<path fill="#8DC63F" d="M15.411,8.332c0-0.132,0.108-0.24,0.24-0.24c0.132,0,0.24,0.108,0.24,0.24s-0.108,0.24-0.24,0.24
										C15.518,8.572,15.411,8.464,15.411,8.332z M15.472,8.332c0,0.099,0.08,0.179,0.179,0.179c0.099,0,0.179-0.08,0.179-0.179
										c0-0.099-0.08-0.179-0.179-0.179C15.552,8.153,15.472,8.233,15.472,8.332z"/>
								</g>
							</g>
						</g>
					</g>
				</g>
			</g>
		</g>
	</g>
	<g>
		<g>
			<g>
				<g>
					<g>
						<g>
							<g>
								<g>
									<path fill="#8DC63F" d="M13.28,4.717c0-0.222,0.181-0.403,0.403-0.403c0.222,0,0.403,0.181,0.403,0.403
										S13.905,5.12,13.683,5.12C13.46,5.12,13.28,4.939,13.28,4.717z M13.483,4.717c0,0.11,0.09,0.2,0.2,0.2
										c0.11,0,0.2-0.09,0.2-0.2s-0.09-0.2-0.2-0.2C13.573,4.517,13.483,4.607,13.483,4.717z"/>
								</g>
							</g>
						</g>
					</g>
				</g>
			</g>
		</g>
	</g>
	<g>
		<g>
			<g>
				<g>
					<g>
						<g>
							<g>
								<path fill="#E6E6E5" d="M7.407,6.842c0.424-0.23,0.885-0.4,1.372-0.5c0.328-0.067,0.668-0.103,1.016-0.103
									c0.341,0,0.675,0.034,0.997,0.099c2.296,0.462,4.025,2.491,4.025,4.923c0,2.773-2.248,5.021-5.021,5.021
									c-2.773,0-5.022-2.248-5.022-5.021c0-1.399,0.572-2.663,1.494-3.574C6.604,7.354,6.988,7.069,7.407,6.842z"/>
							</g>
						</g>
					</g>
				</g>
			</g>
		</g>
	</g>
	<g>
		<g>
			<g>
				<g>
					<g>
						<g>
							<g>
								<polygon fill="#B3E2F0" points="11.525,3.738 11.525,5.147 10.792,5.147 8.78,5.147 8.068,5.147 8.068,3.738 								"/>
							</g>
						</g>
					</g>
				</g>
			</g>
		</g>
	</g>
	<g>
		<g>
			<g>
				<g>
					<g>
						<g>
							<g>
								<polygon fill="#95D8ED" points="8.829,3.738 8.829,5.147 8.667,5.147 8.224,5.147 8.068,5.147 8.068,3.738 								"/>
							</g>
						</g>
					</g>
				</g>
			</g>
		</g>
	</g>
	<g>
		<g>
			<g>
				<g>
					<g>
						<g>
							<g>
								<path fill="#CDCCCC" d="M10.792,5.147v1.191c-0.322-0.065-0.656-0.099-0.997-0.099c-0.348,0-0.688,0.035-1.016,0.103V5.147
									L10.792,5.147z"/>
							</g>
						</g>
					</g>
				</g>
			</g>
		</g>
	</g>
	<g>
		<g>
			<g>
				<g>
					<g>
						<g>
							<g>
								<path fill="#E6E6E5" d="M10.205,5.147v1.191C10.071,6.273,9.932,6.239,9.79,6.239c-0.145,0-0.287,0.035-0.424,0.103V5.147
									L10.205,5.147z"/>
							</g>
						</g>
					</g>
				</g>
			</g>
		</g>
	</g>
	<g>
		<g>
			<g>
				<g>
					<g>
						<g>
							<g>
								<path fill="#F37478" d="M6.257,5.463l1.15,1.379c-0.42,0.227-0.803,0.512-1.14,0.845L5.169,6.371L6.257,5.463z"/>
							</g>
						</g>
					</g>
				</g>
			</g>
		</g>
	</g>
	<g>
		<g>
			<g>
				<g>
					<g>
						<g>
							<g>
								<path fill="#D8515B" d="M5.848,5.798l1.15,1.379c-0.42,0.227-0.038-0.161-0.375,0.172L5.526,6.032L5.848,5.798z"/>
							</g>
						</g>
					</g>
				</g>
			</g>
		</g>
	</g>
	<g>
		<g>
			<g>
				<g>
					<g>
						<g>
							<g>
								<path fill="#F37478" d="M13.757,11.261H9.795V7.298c0.683,0,1.327,0.173,1.888,0.478
									C12.919,8.447,13.757,9.756,13.757,11.261z"/>
							</g>
						</g>
					</g>
				</g>
			</g>
		</g>
	</g>
	<g>
		<g>
			<g>
				<g>
					<g>
						<g>
							<g>
								<path fill="#B3E2F0" d="M13.757,11.261c0,2.188-1.774,3.962-3.962,3.962c-0.645,0-1.254-0.154-1.792-0.427
									c-1.288-0.654-2.171-1.992-2.171-3.535c0-2.188,1.774-3.962,3.962-3.962v3.962H13.757z"/>
							</g>
						</g>
					</g>
				</g>
			</g>
		</g>
	</g>
	<g>
		<g>
			<g>
				<g>
					<g>
						<g>
							<g>
								<path fill="#95D8ED" d="M8.707,14.796c-1.288-0.654-2.171-1.992-2.171-3.535c0-1.948,1.406-3.568,3.259-3.9V7.298
									c-2.188,0-3.962,1.774-3.962,3.962c0,1.543,0.883,2.881,2.171,3.535c0.538,0.273,1.147,0.427,1.792,0.427
									c0.118,0,0.235-0.005,0.35-0.016C9.631,15.162,9.145,15.019,8.707,14.796z"/>
							</g>
						</g>
					</g>
				</g>
			</g>
		</g>
	</g>
	<g>
		<g>
			<g>
				<g>
					<g>
						<g>
							<g>
								<path fill="#3A2F85" d="M9.795,16.398c-2.833,0-5.137-2.304-5.137-5.137c0-1.416,0.576-2.701,1.507-3.631L5.147,6.409
									C5.129,6.388,5.121,6.362,5.123,6.335C5.126,6.308,5.139,6.283,5.16,6.266l0.99-0.826c0.043-0.036,0.107-0.03,0.143,0.013
									l1.071,1.284c0.413-0.223,0.86-0.391,1.331-0.494C8.682,6.225,8.674,6.203,8.674,6.181V5.266
									c0-0.009,0.001-0.018,0.003-0.026H7.984c-0.056,0-0.102-0.046-0.102-0.102v-1.39c0-0.056,0.046-0.102,0.102-0.102h3.582
									c0.056,0,0.102,0.046,0.102,0.102v1.39c0,0.056-0.046,0.102-0.102,0.102h-0.672c0.002,0.008,0.003,0.017,0.003,0.026
									c0,0.002,0,0.004,0,0.006v0.905c0,0.022-0.007,0.043-0.02,0.061c2.315,0.498,4.055,2.561,4.055,5.022
									C14.932,14.093,12.628,16.398,9.795,16.398z M9.795,6.327c-2.72,0-4.934,2.213-4.934,4.934s2.213,4.934,4.934,4.934
									s4.934-2.213,4.934-4.934S12.515,6.327,9.795,6.327z M5.368,6.357l0.935,1.121c0.273-0.239,0.565-0.457,0.871-0.651
									L6.202,5.661L5.368,6.357z M8.877,5.368v0.696c0.304-0.041,0.613-0.062,0.92-0.062c0.299,0,0.6,0.02,0.896,0.059V5.368
									H8.877z M8.085,5.036h3.379V3.85H8.085V5.036z"/>
							</g>
						</g>
					</g>
				</g>
			</g>
		</g>
	</g>
	<g>
		<g>
			<g>
				<g>
					<g>
						<g>
							<g>
								<circle fill="#3A2F85" cx="12.544" cy="12.848" r="0.22"/>
							</g>
						</g>
					</g>
				</g>
			</g>
		</g>
	</g>
	<g>
		<g>
			<g>
				<g>
					<g>
						<g>
							<g>
								<circle fill="#3A2F85" cx="11.382" cy="14.01" r="0.22"/>
							</g>
						</g>
					</g>
				</g>
			</g>
		</g>
	</g>
	<g>
		<g>
			<g>
				<g>
					<g>
						<g>
							<g>
								<circle fill="#3A2F85" cx="9.795" cy="14.435" r="0.22"/>
							</g>
						</g>
					</g>
				</g>
			</g>
		</g>
	</g>
	<g>
		<g>
			<g>
				<g>
					<g>
						<g>
							<g>
								<circle fill="#3A2F85" cx="8.208" cy="14.01" r="0.22"/>
							</g>
						</g>
					</g>
				</g>
			</g>
		</g>
	</g>
	<g>
		<g>
			<g>
				<g>
					<g>
						<g>
							<g>
								<circle fill="#3A2F85" cx="7.046" cy="12.848" r="0.22"/>
							</g>
						</g>
					</g>
				</g>
			</g>
		</g>
	</g>
	<g>
		<g>
			<g>
				<g>
					<g>
						<g>
							<g>
								<circle fill="#3A2F85" cx="6.621" cy="11.261" r="0.22"/>
							</g>
						</g>
					</g>
				</g>
			</g>
		</g>
	</g>
	<g>
		<g>
			<g>
				<g>
					<g>
						<g>
							<g>
								<circle fill="#3A2F85" cx="7.046" cy="9.674" r="0.22"/>
							</g>
						</g>
					</g>
				</g>
			</g>
		</g>
	</g>
	<g>
		<g>
			<g>
				<g>
					<g>
						<g>
							<g>
								<circle fill="#3A2F85" cx="8.208" cy="8.512" r="0.22"/>
							</g>
						</g>
					</g>
				</g>
			</g>
		</g>
	</g>
	<g>
		<g>
			<g>
				<g>
					<g>
						<g>
							<g>
								<circle fill="#3A2F85" cx="11.382" cy="8.512" r="0.22"/>
							</g>
						</g>
					</g>
				</g>
			</g>
		</g>
	</g>
	<g>
		<g>
			<g>
				<g>
					<g>
						<g>
							<g>
								<circle fill="#3A2F85" cx="12.544" cy="9.674" r="0.22"/>
							</g>
						</g>
					</g>
				</g>
			</g>
		</g>
	</g>
	<g>
		<g>
			<g>
				<g>
					<g>
						<g>
							<g>
								<path fill="#3A2F85" d="M9.795,10.856c-0.084,0-0.152-0.068-0.152-0.152V7.745c0-0.084,0.068-0.152,0.152-0.152
									c0.084,0,0.152,0.068,0.152,0.152v2.958C9.948,10.787,9.879,10.856,9.795,10.856z"/>
							</g>
						</g>
					</g>
				</g>
			</g>
		</g>
	</g>
	<g>
		<g>
			<g>
				<g>
					<g>
						<g>
							<g>
								<path fill="#3A2F85" d="M13.391,11.435c-0.001,0-0.001,0-0.002,0l-3.08-0.038c-0.084-0.001-0.152-0.07-0.151-0.154
									c0.001-0.084,0.07-0.152,0.154-0.151l3.08,0.038c0.084,0.001,0.152,0.07,0.151,0.154
									C13.543,11.368,13.475,11.435,13.391,11.435z"/>
							</g>
						</g>
					</g>
				</g>
			</g>
		</g>
	</g>
	<g>
		<g>
			<g>
				<g>
					<g>
						<g>
							<g>
								<path fill="none" stroke="#000000" stroke-width="20" stroke-linecap="round" stroke-miterlimit="10" d="M9.795,11.261"/>
							</g>
						</g>
					</g>
				</g>
			</g>
		</g>
	</g>
	<g>
		<g>
			<g>
				<g>
					<g>
						<g>
							<g>
								<circle fill="#3A2F85" cx="9.795" cy="11.261" r="0.331"/>
							</g>
						</g>
					</g>
				</g>
			</g>
		</g>
	</g>
	<g>
		<g>
			<g>
				<g>
					<g>
						<g>
							<g>
								<path fill="#3A2F85" d="M13.286,9.517c-0.036,0-0.072-0.02-0.09-0.054c-0.357-0.673-0.899-1.221-1.569-1.585
									c-0.049-0.027-0.068-0.088-0.041-0.138c0.027-0.049,0.089-0.068,0.138-0.041c0.705,0.383,1.276,0.96,1.651,1.668
									c0.026,0.05,0.007,0.111-0.042,0.137C13.319,9.514,13.302,9.517,13.286,9.517z"/>
							</g>
						</g>
					</g>
				</g>
			</g>
		</g>
	</g>
	<g>
		<g>
			<g>
				<g>
					<g>
						<g>
							<g>
								<path fill="#3A2F85" d="M9.795,15.31c-0.547,0-1.077-0.107-1.576-0.318c-0.482-0.204-0.915-0.496-1.287-0.868
									c-0.372-0.372-0.664-0.805-0.868-1.287c-0.211-0.499-0.318-1.03-0.318-1.576c0-0.547,0.107-1.077,0.318-1.576
									C6.268,9.202,6.56,8.769,6.932,8.397C7.304,8.026,7.737,7.734,8.219,7.53c0.499-0.211,1.03-0.318,1.576-0.318
									c0.423,0,0.84,0.065,1.239,0.193c0.053,0.017,0.083,0.074,0.066,0.128c-0.017,0.053-0.074,0.083-0.128,0.066
									c-0.379-0.122-0.775-0.183-1.176-0.183c-0.519,0-1.023,0.102-1.497,0.302C7.84,7.911,7.429,8.188,7.075,8.541
									C6.722,8.894,6.445,9.306,6.251,9.764c-0.201,0.474-0.302,0.978-0.302,1.497s0.102,1.023,0.302,1.497
									c0.194,0.458,0.471,0.869,0.824,1.223c0.353,0.353,0.765,0.631,1.223,0.824c0.474,0.201,0.978,0.302,1.497,0.302
									s1.023-0.102,1.497-0.302c0.458-0.194,0.869-0.471,1.223-0.824c0.353-0.353,0.631-0.765,0.824-1.223
									c0.201-0.474,0.302-0.978,0.302-1.497c0-0.411-0.064-0.815-0.191-1.202c-0.018-0.053,0.012-0.111,0.065-0.128
									c0.053-0.018,0.111,0.012,0.128,0.065c0.134,0.407,0.202,0.833,0.202,1.265c0,0.547-0.107,1.077-0.318,1.576
									c-0.204,0.482-0.496,0.915-0.868,1.287c-0.372,0.372-0.805,0.664-1.287,0.868C10.872,15.203,10.342,15.31,9.795,15.31z"/>
							</g>
						</g>
					</g>
				</g>
			</g>
		</g>
	</g>
	<g>
		<g>
			<g>
				<g>
					<g>
						<g>
							<g>
								<path fill="none" stroke="#000000" stroke-width="20" stroke-miterlimit="10" d="M11.378,7.746"/>
							</g>
						</g>
					</g>
				</g>
			</g>
		</g>
	</g>
	<g>
		<g>
			<g>
				<g>
					<g>
						<g>
							<g>
								<path fill="#F37478" d="M11.91,7.936"/>
							</g>
						</g>
					</g>
				</g>
			</g>
		</g>
	</g>
	<g>
		<g>
			<g>
				<g>
					<g>
						<g>
							<g>
								<path fill="#3A2F85" d="M11.89,16.438h-7.5c-0.056,0-0.102-0.046-0.102-0.102c0-0.056,0.046-0.102,0.102-0.102h7.5
									c0.056,0,0.102,0.046,0.102,0.102C11.991,16.393,11.946,16.438,11.89,16.438z"/>
							</g>
						</g>
					</g>
				</g>
			</g>
		</g>
	</g>
	<g>
		<g>
			<g>
				<g>
					<g>
						<g>
							<g>
								<path fill="#3A2F85" d="M14.207,16.438h-1.707c-0.056,0-0.102-0.046-0.102-0.102c0-0.056,0.046-0.102,0.102-0.102h1.707
									c0.056,0,0.102,0.046,0.102,0.102C14.308,16.393,14.263,16.438,14.207,16.438z"/>
							</g>
						</g>
					</g>
				</g>
			</g>
		</g>
	</g>
	<g opacity="0.7">
		<g>
			<g>
				<g>
					<g>
						<g>
							<g>
								<path fill="#3A2F85" d="M13.109,16.926h-7.5c-0.056,0-0.102-0.046-0.102-0.102s0.046-0.102,0.102-0.102h7.5
									c0.056,0,0.102,0.046,0.102,0.102S13.165,16.926,13.109,16.926z"/>
							</g>
						</g>
					</g>
				</g>
			</g>
		</g>
	</g>
	<g opacity="0.7">
		<g>
			<g>
				<g>
					<g>
						<g>
							<g>
								<path fill="#3A2F85" d="M4.999,16.926H3.292c-0.056,0-0.102-0.046-0.102-0.102s0.046-0.102,0.102-0.102h1.707
									c0.056,0,0.102,0.046,0.102,0.102S5.055,16.926,4.999,16.926z"/>
							</g>
						</g>
					</g>
				</g>
			</g>
		</g>
	</g>
	<g opacity="0.2">
		<g>
			<g>
				<g>
					<g>
						<g>
							<g>
								<path fill="#3A2F85" d="M11.121,17.297H9.8c-0.056,0-0.102-0.046-0.102-0.102s0.046-0.102,0.102-0.102h1.321
									c0.056,0,0.102,0.046,0.102,0.102S11.177,17.297,11.121,17.297z"/>
							</g>
						</g>
					</g>
				</g>
			</g>
		</g>
	</g>
	<g opacity="0.2">
		<g>
			<g>
				<g>
					<g>
						<g>
							<g>
								<path fill="#3A2F85" d="M9.454,17.297H8.702c-0.056,0-0.102-0.046-0.102-0.102s0.046-0.102,0.102-0.102h0.752
									c0.056,0,0.102,0.046,0.102,0.102S9.51,17.297,9.454,17.297z"/>
							</g>
						</g>
					</g>
				</g>
			</g>
		</g>
	</g>
	<g opacity="0.2">
		<g>
			<g>
				<g>
					<g>
						<g>
							<g>
								<path fill="#3A2F85" d="M8.377,17.297H7.238c-0.056,0-0.102-0.046-0.102-0.102s0.046-0.102,0.102-0.102h1.138
									c0.056,0,0.102,0.046,0.102,0.102S8.433,17.297,8.377,17.297z"/>
							</g>
						</g>
					</g>
				</g>
			</g>
		</g>
	</g>
</g>
</svg>
