<?xml version="1.0" encoding="utf-8"?>
<!-- Generator: Adobe Illustrator 17.0.2, SVG Export Plug-In . SVG Version: 6.00 Build 0)  -->
<!DOCTYPE svg PUBLIC "-//W3C//DTD SVG 1.1//EN" "http://www.w3.org/Graphics/SVG/1.1/DTD/svg11.dtd">
<svg version="1.1" id="Layer_1" xmlns="http://www.w3.org/2000/svg" xmlns:xlink="http://www.w3.org/1999/xlink" x="0px" y="0px"
	 width="22.58px" height="16.656px" viewBox="0 0 22.58 16.656" enable-background="new 0 0 22.58 16.656" xml:space="preserve">
<g>
	<g>
		<g>
			<g>
				<g>
					<g>
						<g>
							<g>
								<g>
									<g>
										<g>
											<g>
												<g>
													<g>
														<g>
															<path fill="#E9F6FA" d="M8.014,10.512c0,0.305-0.192,0.565-0.462,0.665H5.973c-0.27,0-0.489,0.219-0.489,0.489
																s0.219,0.489,0.489,0.489h3.493c0.224,0.119,0.377,0.355,0.377,0.627c0,0.271-0.152,0.506-0.375,0.626H8.615
																c-0.27,0-0.489,0.219-0.489,0.489s0.219,0.489,0.489,0.489h3.029c0.225,0.119,0.378,0.355,0.378,0.627
																c0,0.27-0.151,0.505-0.374,0.625h-0.743c-0.102,0-0.197,0.031-0.275,0.084h-0.062v0.05
																c-0.094,0.089-0.153,0.215-0.153,0.355c0,0.27,0.219,0.489,0.489,0.489h5.461c0.27,0,0.489-0.219,0.489-0.489
																c0-0.27-0.219-0.489-0.489-0.489h-1.239c-0.222-0.12-0.374-0.355-0.374-0.625c0-0.272,0.153-0.508,0.378-0.627h2.233
																c0.27,0,0.489-0.219,0.489-0.489s-0.219-0.489-0.489-0.489h-3.842c-0.223-0.12-0.375-0.355-0.375-0.626
																c0-0.272,0.153-0.508,0.377-0.627h1.197c0.27,0,0.489-0.219,0.489-0.489s-0.219-0.489-0.489-0.489h-3.265
																c-0.27-0.1-0.462-0.36-0.462-0.665c0-0.287,0.171-0.534,0.416-0.646h3.135c0.27,0,0.489-0.219,0.489-0.489
																s-0.219-0.489-0.489-0.489H5.797c-0.27,0-0.489,0.219-0.489,0.489s0.219,0.489,0.489,0.489h1.801
																C7.843,9.978,8.014,10.225,8.014,10.512z"/>
														</g>
													</g>
												</g>
											</g>
										</g>
									</g>
								</g>
							</g>
						</g>
					</g>
				</g>
			</g>
		</g>
		<g>
			<g>
				<g>
					<g>
						<g>
							<g>
								<g>
									<g>
										<g>
											<g>
												<g>
													<g>
														<g>
															<g>
																<path fill="#E9F6FA" d="M1.626,6.011h3.983C5.91,5.93,6.132,5.654,6.132,5.326c0-0.328-0.222-0.603-0.524-0.685
																	H3.505c-0.27,0-0.489-0.219-0.489-0.489s0.219-0.489,0.489-0.489h9.864c0.27,0,0.489,0.219,0.489,0.489
																	s-0.219,0.489-0.489,0.489h-2.981c-0.302,0.082-0.524,0.357-0.524,0.685c0,0.328,0.222,0.603,0.524,0.685h3.921
																	c0.27,0,0.489,0.219,0.489,0.489c0,0.27-0.219,0.489-0.489,0.489h-1.047c-0.256,0.082-0.442,0.322-0.442,0.606
																	c0,0.292,0.197,0.538,0.465,0.613L13.28,8.223h1.058c0.27,0,0.489,0.219,0.489,0.489s-0.219,0.489-0.489,0.489
																	H5.589c-0.27,0-0.489-0.219-0.489-0.489s0.219-0.489,0.489-0.489h3.251c0.157-0.13,0.258-0.327,0.258-0.547
																	c0-0.329-0.223-0.605-0.526-0.686H1.626c-0.27,0-0.489-0.219-0.489-0.489C1.136,6.231,1.355,6.011,1.626,6.011z"/>
															</g>
														</g>
													</g>
												</g>
											</g>
										</g>
									</g>
								</g>
							</g>
						</g>
					</g>
				</g>
			</g>
			<g>
				<g>
					<g>
						<g>
							<g>
								<g>
									<g>
										<g>
											<g>
												<g>
													<g>
														<g>
															<g>
																<path fill="#E9F6FA" d="M7.791,10.572H8.73c0.27,0,0.489,0.219,0.489,0.489s-0.219,0.489-0.489,0.489H7.791
																	c-0.27,0-0.489-0.219-0.489-0.489S7.521,10.572,7.791,10.572z"/>
															</g>
														</g>
													</g>
												</g>
											</g>
										</g>
									</g>
								</g>
							</g>
						</g>
					</g>
				</g>
			</g>
		</g>
		<g>
			<g>
				<g>
					<g>
						<g>
							<g>
								<g>
									<g>
										<g>
											<g>
												<g>
													<g>
														<g>
															<g>
																<path fill="#E9F6FA" d="M22.09,6.011h-3.983c-0.302-0.082-0.524-0.357-0.524-0.685c0-0.328,0.222-0.603,0.524-0.685
																	h2.104c0.27,0,0.489-0.219,0.489-0.489s-0.219-0.489-0.489-0.489h-9.864c-0.27,0-0.489,0.219-0.489,0.489
																	s0.219,0.489,0.489,0.489h2.981c0.302,0.082,0.524,0.357,0.524,0.685c0,0.328-0.222,0.603-0.524,0.685H9.407
																	c-0.27,0-0.489,0.219-0.489,0.489c0,0.27,0.219,0.489,0.489,0.489h1.047c0.256,0.082,0.442,0.322,0.442,0.606
																	c0,0.292-0.197,0.538-0.465,0.613l0.005,0.014H9.378c-0.27,0-0.489,0.219-0.489,0.489s0.219,0.489,0.489,0.489
																	h8.749c0.27,0,0.489-0.219,0.489-0.489s-0.219-0.489-0.489-0.489h-3.251c-0.157-0.13-0.258-0.327-0.258-0.547
																	c0-0.329,0.223-0.605,0.526-0.686h6.946c0.27,0,0.489-0.219,0.489-0.489C22.58,6.231,22.361,6.011,22.09,6.011z"/>
															</g>
														</g>
													</g>
												</g>
											</g>
										</g>
									</g>
								</g>
							</g>
						</g>
					</g>
				</g>
			</g>
			<g>
				<g>
					<g>
						<g>
							<g>
								<g>
									<g>
										<g>
											<g>
												<g>
													<g>
														<g>
															<g>
																<path fill="#E9F6FA" d="M16.943,11.198h-0.939c-0.27,0-0.489,0.219-0.489,0.489s0.219,0.489,0.489,0.489h0.939
																	c0.27,0,0.489-0.219,0.489-0.489S17.213,11.198,16.943,11.198z"/>
															</g>
														</g>
													</g>
												</g>
											</g>
										</g>
									</g>
								</g>
							</g>
						</g>
					</g>
				</g>
			</g>
		</g>
		<g>
			<g>
				<g>
					<g>
						<g>
							<g>
								<g>
									<g>
										<g>
											<g>
												<g>
													<g>
														<g>
															<g>
																<path fill="#FFF200" d="M3.324,10.348c0.014,0,0.024-0.011,0.024-0.024v-0.103c0-0.014-0.011-0.024-0.024-0.024
																	c-0.014,0-0.024,0.011-0.024,0.024v0.103C3.299,10.337,3.31,10.348,3.324,10.348z"/>
															</g>
														</g>
													</g>
												</g>
											</g>
										</g>
									</g>
								</g>
							</g>
						</g>
					</g>
				</g>
			</g>
			<g>
				<g>
					<g>
						<g>
							<g>
								<g>
									<g>
										<g>
											<g>
												<g>
													<g>
														<g>
															<g>
																<path fill="#FFF200" d="M3.395,10.367c0.008,0,0.017-0.004,0.021-0.012l0.052-0.089
																	c0.007-0.012,0.003-0.027-0.009-0.033c-0.012-0.007-0.027-0.003-0.033,0.009L3.373,10.33
																	c-0.007,0.012-0.003,0.027,0.009,0.033C3.386,10.366,3.39,10.367,3.395,10.367z"/>
															</g>
														</g>
													</g>
												</g>
											</g>
										</g>
									</g>
								</g>
							</g>
						</g>
					</g>
				</g>
			</g>
			<g>
				<g>
					<g>
						<g>
							<g>
								<g>
									<g>
										<g>
											<g>
												<g>
													<g>
														<g>
															<g>
																<path fill="#FFF200" d="M3.446,10.419c0.004,0,0.008-0.001,0.012-0.003l0.089-0.052
																	c0.012-0.007,0.016-0.022,0.009-0.033c-0.007-0.012-0.022-0.016-0.033-0.009l-0.089,0.052
																	c-0.012,0.007-0.016,0.022-0.009,0.033C3.43,10.415,3.438,10.419,3.446,10.419z"/>
															</g>
														</g>
													</g>
												</g>
											</g>
										</g>
									</g>
								</g>
							</g>
						</g>
					</g>
				</g>
			</g>
			<g>
				<g>
					<g>
						<g>
							<g>
								<g>
									<g>
										<g>
											<g>
												<g>
													<g>
														<g>
															<g>
																<path fill="#FFF200" d="M3.465,10.49h0.103c0.014,0,0.024-0.011,0.024-0.024c0-0.014-0.011-0.024-0.024-0.024H3.465
																	c-0.014,0-0.024,0.011-0.024,0.024C3.441,10.479,3.452,10.49,3.465,10.49z"/>
															</g>
														</g>
													</g>
												</g>
											</g>
										</g>
									</g>
								</g>
							</g>
						</g>
					</g>
				</g>
			</g>
			<g>
				<g>
					<g>
						<g>
							<g>
								<g>
									<g>
										<g>
											<g>
												<g>
													<g>
														<g>
															<g>
																<path fill="#FFF200" d="M3.536,10.612c0.008,0,0.017-0.004,0.021-0.012c0.007-0.012,0.003-0.027-0.009-0.033
																	l-0.089-0.052c-0.012-0.007-0.027-0.003-0.033,0.009c-0.007,0.012-0.003,0.027,0.009,0.033l0.089,0.052
																	C3.527,10.611,3.531,10.612,3.536,10.612z"/>
															</g>
														</g>
													</g>
												</g>
											</g>
										</g>
									</g>
								</g>
							</g>
						</g>
					</g>
				</g>
			</g>
			<g>
				<g>
					<g>
						<g>
							<g>
								<g>
									<g>
										<g>
											<g>
												<g>
													<g>
														<g>
															<g>
																<path fill="#FFF200" d="M3.446,10.702c0.004,0,0.008-0.001,0.012-0.003c0.012-0.007,0.016-0.022,0.009-0.033
																	l-0.052-0.089c-0.007-0.012-0.022-0.016-0.033-0.009c-0.012,0.007-0.016,0.022-0.009,0.033l0.052,0.089
																	C3.429,10.697,3.438,10.702,3.446,10.702z"/>
															</g>
														</g>
													</g>
												</g>
											</g>
										</g>
									</g>
								</g>
							</g>
						</g>
					</g>
				</g>
			</g>
			<g>
				<g>
					<g>
						<g>
							<g>
								<g>
									<g>
										<g>
											<g>
												<g>
													<g>
														<g>
															<g>
																<path fill="#FFF200" d="M3.324,10.735c0.014,0,0.024-0.011,0.024-0.024v-0.103c0-0.014-0.011-0.024-0.024-0.024
																	c-0.014,0-0.024,0.011-0.024,0.024v0.103C3.299,10.724,3.31,10.735,3.324,10.735z"/>
															</g>
														</g>
													</g>
												</g>
											</g>
										</g>
									</g>
								</g>
							</g>
						</g>
					</g>
				</g>
			</g>
			<g>
				<g>
					<g>
						<g>
							<g>
								<g>
									<g>
										<g>
											<g>
												<g>
													<g>
														<g>
															<g>
																<path fill="#FFF200" d="M3.201,10.702c0.008,0,0.017-0.004,0.021-0.012L3.274,10.6
																	c0.007-0.012,0.003-0.027-0.009-0.033c-0.012-0.007-0.027-0.003-0.033,0.009L3.18,10.665
																	c-0.007,0.012-0.003,0.027,0.009,0.033C3.193,10.701,3.197,10.702,3.201,10.702z"/>
															</g>
														</g>
													</g>
												</g>
											</g>
										</g>
									</g>
								</g>
							</g>
						</g>
					</g>
				</g>
			</g>
			<g>
				<g>
					<g>
						<g>
							<g>
								<g>
									<g>
										<g>
											<g>
												<g>
													<g>
														<g>
															<g>
																<path fill="#FFF200" d="M3.112,10.612c0.004,0,0.008-0.001,0.012-0.003l0.089-0.052
																	c0.012-0.007,0.016-0.022,0.009-0.033c-0.007-0.012-0.022-0.016-0.033-0.009l-0.089,0.052
																	c-0.012,0.007-0.016,0.022-0.009,0.033C3.095,10.608,3.103,10.612,3.112,10.612z"/>
															</g>
														</g>
													</g>
												</g>
											</g>
										</g>
									</g>
								</g>
							</g>
						</g>
					</g>
				</g>
			</g>
			<g>
				<g>
					<g>
						<g>
							<g>
								<g>
									<g>
										<g>
											<g>
												<g>
													<g>
														<g>
															<g>
																<path fill="#FFF200" d="M3.079,10.49h0.103c0.014,0,0.024-0.011,0.024-0.024c0-0.014-0.011-0.024-0.024-0.024H3.079
																	c-0.014,0-0.024,0.011-0.024,0.024C3.054,10.479,3.065,10.49,3.079,10.49z"/>
															</g>
														</g>
													</g>
												</g>
											</g>
										</g>
									</g>
								</g>
							</g>
						</g>
					</g>
				</g>
			</g>
			<g>
				<g>
					<g>
						<g>
							<g>
								<g>
									<g>
										<g>
											<g>
												<g>
													<g>
														<g>
															<g>
																<path fill="#FFF200" d="M3.201,10.419c0.008,0,0.017-0.004,0.021-0.012c0.007-0.012,0.003-0.027-0.009-0.033
																	l-0.089-0.052c-0.012-0.007-0.027-0.003-0.033,0.009c-0.007,0.012-0.003,0.027,0.009,0.033l0.089,0.052
																	C3.193,10.418,3.197,10.419,3.201,10.419z"/>
															</g>
														</g>
													</g>
												</g>
											</g>
										</g>
									</g>
								</g>
							</g>
						</g>
					</g>
				</g>
			</g>
			<g>
				<g>
					<g>
						<g>
							<g>
								<g>
									<g>
										<g>
											<g>
												<g>
													<g>
														<g>
															<g>
																<path fill="#FFF200" d="M3.253,10.367c0.004,0,0.008-0.001,0.012-0.003c0.012-0.007,0.016-0.022,0.009-0.033
																	l-0.052-0.089c-0.007-0.012-0.022-0.016-0.033-0.009c-0.012,0.007-0.016,0.022-0.009,0.033l0.052,0.089
																	C3.236,10.363,3.244,10.367,3.253,10.367z"/>
															</g>
														</g>
													</g>
												</g>
											</g>
										</g>
									</g>
								</g>
							</g>
						</g>
					</g>
				</g>
			</g>
		</g>
		<g>
			<g>
				<g>
					<g>
						<g>
							<g>
								<g>
									<g>
										<g>
											<g>
												<g>
													<g>
														<g>
															<g>
																<path fill="#D6569F" d="M6.784,2.739c0.038,0,0.069-0.031,0.069-0.069V2.444c0-0.038-0.031-0.069-0.069-0.069
																	S6.715,2.406,6.715,2.444V2.67C6.715,2.708,6.746,2.739,6.784,2.739z"/>
															</g>
														</g>
													</g>
												</g>
											</g>
										</g>
									</g>
								</g>
							</g>
						</g>
					</g>
				</g>
			</g>
			<g>
				<g>
					<g>
						<g>
							<g>
								<g>
									<g>
										<g>
											<g>
												<g>
													<g>
														<g>
															<g>
																<path fill="#D6569F" d="M6.94,2.781c0.024,0,0.047-0.012,0.059-0.034L7.112,2.55
																	C7.131,2.517,7.12,2.475,7.087,2.457C7.054,2.438,7.013,2.449,6.994,2.482L6.88,2.678
																	C6.861,2.711,6.873,2.753,6.905,2.772C6.916,2.778,6.928,2.781,6.94,2.781z"/>
															</g>
														</g>
													</g>
												</g>
											</g>
										</g>
									</g>
								</g>
							</g>
						</g>
					</g>
				</g>
			</g>
			<g>
				<g>
					<g>
						<g>
							<g>
								<g>
									<g>
										<g>
											<g>
												<g>
													<g>
														<g>
															<g>
																<path fill="#D6569F" d="M7.054,2.895c0.012,0,0.023-0.003,0.034-0.009l0.196-0.113
																	c0.033-0.019,0.044-0.061,0.025-0.094C7.29,2.646,7.249,2.635,7.216,2.654L7.019,2.767
																	C6.987,2.786,6.975,2.828,6.994,2.861C7.007,2.882,7.03,2.895,7.054,2.895z"/>
															</g>
														</g>
													</g>
												</g>
											</g>
										</g>
									</g>
								</g>
							</g>
						</g>
					</g>
				</g>
			</g>
			<g>
				<g>
					<g>
						<g>
							<g>
								<g>
									<g>
										<g>
											<g>
												<g>
													<g>
														<g>
															<g>
																<path fill="#D6569F" d="M7.095,3.051h0.227c0.038,0,0.069-0.031,0.069-0.069S7.36,2.914,7.322,2.914H7.095
																	c-0.038,0-0.069,0.031-0.069,0.069S7.058,3.051,7.095,3.051z"/>
															</g>
														</g>
													</g>
												</g>
											</g>
										</g>
									</g>
								</g>
							</g>
						</g>
					</g>
				</g>
			</g>
			<g>
				<g>
					<g>
						<g>
							<g>
								<g>
									<g>
										<g>
											<g>
												<g>
													<g>
														<g>
															<g>
																<path fill="#D6569F" d="M7.25,3.32c0.024,0,0.047-0.012,0.059-0.034c0.019-0.033,0.008-0.075-0.025-0.094
																	L7.088,3.079C7.055,3.06,7.013,3.071,6.994,3.104C6.975,3.136,6.987,3.178,7.019,3.197l0.196,0.113
																	C7.227,3.317,7.238,3.32,7.25,3.32z"/>
															</g>
														</g>
													</g>
												</g>
											</g>
										</g>
									</g>
								</g>
							</g>
						</g>
					</g>
				</g>
			</g>
			<g>
				<g>
					<g>
						<g>
							<g>
								<g>
									<g>
										<g>
											<g>
												<g>
													<g>
														<g>
															<g>
																<path fill="#D6569F" d="M7.053,3.517c0.012,0,0.023-0.003,0.034-0.009C7.12,3.489,7.131,3.447,7.112,3.414
																	L6.999,3.218C6.98,3.185,6.938,3.174,6.905,3.193C6.873,3.212,6.861,3.253,6.88,3.286l0.113,0.196
																	C7.006,3.505,7.029,3.517,7.053,3.517z"/>
															</g>
														</g>
													</g>
												</g>
											</g>
										</g>
									</g>
								</g>
							</g>
						</g>
					</g>
				</g>
			</g>
			<g>
				<g>
					<g>
						<g>
							<g>
								<g>
									<g>
										<g>
											<g>
												<g>
													<g>
														<g>
															<g>
																<path fill="#D6569F" d="M6.784,3.589c0.038,0,0.069-0.031,0.069-0.069V3.294c0-0.038-0.031-0.069-0.069-0.069
																	S6.715,3.256,6.715,3.294V3.52C6.715,3.558,6.746,3.589,6.784,3.589z"/>
															</g>
														</g>
													</g>
												</g>
											</g>
										</g>
									</g>
								</g>
							</g>
						</g>
					</g>
				</g>
			</g>
			<g>
				<g>
					<g>
						<g>
							<g>
								<g>
									<g>
										<g>
											<g>
												<g>
													<g>
														<g>
															<g>
																<path fill="#D6569F" d="M6.515,3.517c0.024,0,0.047-0.012,0.059-0.034l0.113-0.196
																	c0.019-0.033,0.008-0.075-0.025-0.094C6.629,3.174,6.588,3.185,6.569,3.218L6.455,3.414
																	C6.436,3.447,6.448,3.489,6.48,3.508C6.491,3.514,6.503,3.517,6.515,3.517z"/>
															</g>
														</g>
													</g>
												</g>
											</g>
										</g>
									</g>
								</g>
							</g>
						</g>
					</g>
				</g>
			</g>
			<g>
				<g>
					<g>
						<g>
							<g>
								<g>
									<g>
										<g>
											<g>
												<g>
													<g>
														<g>
															<g>
																<path fill="#D6569F" d="M6.318,3.32c0.012,0,0.023-0.003,0.034-0.009l0.196-0.113
																	c0.033-0.019,0.044-0.061,0.025-0.094C6.554,3.071,6.512,3.06,6.48,3.079L6.283,3.192
																	C6.251,3.211,6.239,3.253,6.258,3.286C6.271,3.308,6.294,3.32,6.318,3.32z"/>
															</g>
														</g>
													</g>
												</g>
											</g>
										</g>
									</g>
								</g>
							</g>
						</g>
					</g>
				</g>
			</g>
			<g>
				<g>
					<g>
						<g>
							<g>
								<g>
									<g>
										<g>
											<g>
												<g>
													<g>
														<g>
															<g>
																<path fill="#D6569F" d="M6.245,3.051h0.227c0.038,0,0.069-0.031,0.069-0.069S6.51,2.914,6.472,2.914H6.245
																	c-0.038,0-0.069,0.031-0.069,0.069S6.208,3.051,6.245,3.051z"/>
															</g>
														</g>
													</g>
												</g>
											</g>
										</g>
									</g>
								</g>
							</g>
						</g>
					</g>
				</g>
			</g>
			<g>
				<g>
					<g>
						<g>
							<g>
								<g>
									<g>
										<g>
											<g>
												<g>
													<g>
														<g>
															<g>
																<path fill="#D6569F" d="M6.514,2.895c0.024,0,0.047-0.012,0.059-0.034c0.019-0.033,0.008-0.075-0.025-0.094
																	L6.352,2.654C6.319,2.635,6.277,2.646,6.258,2.679C6.239,2.711,6.251,2.753,6.283,2.772L6.48,2.886
																	C6.49,2.892,6.502,2.895,6.514,2.895z"/>
															</g>
														</g>
													</g>
												</g>
											</g>
										</g>
									</g>
								</g>
							</g>
						</g>
					</g>
				</g>
			</g>
			<g>
				<g>
					<g>
						<g>
							<g>
								<g>
									<g>
										<g>
											<g>
												<g>
													<g>
														<g>
															<g>
																<path fill="#D6569F" d="M6.628,2.781c0.012,0,0.023-0.003,0.034-0.009c0.033-0.019,0.044-0.061,0.025-0.094
																	L6.574,2.482C6.555,2.449,6.513,2.438,6.48,2.457C6.448,2.475,6.436,2.517,6.455,2.55l0.113,0.196
																	C6.581,2.768,6.604,2.781,6.628,2.781z"/>
															</g>
														</g>
													</g>
												</g>
											</g>
										</g>
									</g>
								</g>
							</g>
						</g>
					</g>
				</g>
			</g>
		</g>
		<g>
			<g>
				<g>
					<g>
						<g>
							<g>
								<g>
									<g>
										<g>
											<g>
												<g>
													<g>
														<g>
															<g>
																<path fill="#39B54A" d="M5.285,0.459c0.027,0,0.049-0.022,0.049-0.049V0.289c0-0.027-0.022-0.049-0.049-0.049
																	S5.236,0.262,5.236,0.289V0.41C5.236,0.437,5.257,0.459,5.285,0.459z"/>
															</g>
														</g>
													</g>
												</g>
											</g>
										</g>
									</g>
								</g>
							</g>
						</g>
					</g>
				</g>
			</g>
			<g>
				<g>
					<g>
						<g>
							<g>
								<g>
									<g>
										<g>
											<g>
												<g>
													<g>
														<g>
															<g>
																<path fill="#39B54A" d="M5.336,0.5h0.121c0.027,0,0.049-0.022,0.049-0.049S5.484,0.402,5.457,0.402H5.336
																	c-0.027,0-0.049,0.022-0.049,0.049S5.309,0.5,5.336,0.5z"/>
															</g>
														</g>
													</g>
												</g>
											</g>
										</g>
									</g>
								</g>
							</g>
						</g>
					</g>
				</g>
			</g>
			<g>
				<g>
					<g>
						<g>
							<g>
								<g>
									<g>
										<g>
											<g>
												<g>
													<g>
														<g>
															<g>
																<path fill="#39B54A" d="M5.296,0.672c0.027,0,0.049-0.022,0.049-0.049V0.502c0-0.027-0.022-0.049-0.049-0.049
																	S5.247,0.475,5.247,0.502v0.121C5.247,0.65,5.269,0.672,5.296,0.672z"/>
															</g>
														</g>
													</g>
												</g>
											</g>
										</g>
									</g>
								</g>
							</g>
						</g>
					</g>
				</g>
			</g>
			<g>
				<g>
					<g>
						<g>
							<g>
								<g>
									<g>
										<g>
											<g>
												<g>
													<g>
														<g>
															<g>
																<path fill="#39B54A" d="M5.123,0.511h0.121c0.027,0,0.049-0.022,0.049-0.049S5.271,0.413,5.244,0.413H5.123
																	c-0.027,0-0.049,0.022-0.049,0.049S5.096,0.511,5.123,0.511z"/>
															</g>
														</g>
													</g>
												</g>
											</g>
										</g>
									</g>
								</g>
							</g>
						</g>
					</g>
				</g>
			</g>
		</g>
		<g>
			<g>
				<g>
					<g>
						<g>
							<g>
								<g>
									<g>
										<g>
											<g>
												<g>
													<g>
														<g>
															<g>
																<path fill="#662D91" d="M3.232,7.599c0.027,0,0.049-0.022,0.049-0.049V7.43c0-0.027-0.022-0.049-0.049-0.049
																	c-0.027,0-0.049,0.022-0.049,0.049V7.55C3.183,7.577,3.205,7.599,3.232,7.599z"/>
															</g>
														</g>
													</g>
												</g>
											</g>
										</g>
									</g>
								</g>
							</g>
						</g>
					</g>
				</g>
			</g>
			<g>
				<g>
					<g>
						<g>
							<g>
								<g>
									<g>
										<g>
											<g>
												<g>
													<g>
														<g>
															<g>
																<path fill="#662D91" d="M3.284,7.64h0.121c0.027,0,0.049-0.022,0.049-0.049S3.431,7.542,3.404,7.542H3.284
																	c-0.027,0-0.049,0.022-0.049,0.049S3.257,7.64,3.284,7.64z"/>
															</g>
														</g>
													</g>
												</g>
											</g>
										</g>
									</g>
								</g>
							</g>
						</g>
					</g>
				</g>
			</g>
			<g>
				<g>
					<g>
						<g>
							<g>
								<g>
									<g>
										<g>
											<g>
												<g>
													<g>
														<g>
															<g>
																<path fill="#662D91" d="M3.243,7.812c0.027,0,0.049-0.022,0.049-0.049V7.642c0-0.027-0.022-0.049-0.049-0.049
																	c-0.027,0-0.049,0.022-0.049,0.049v0.121C3.194,7.79,3.216,7.812,3.243,7.812z"/>
															</g>
														</g>
													</g>
												</g>
											</g>
										</g>
									</g>
								</g>
							</g>
						</g>
					</g>
				</g>
			</g>
			<g>
				<g>
					<g>
						<g>
							<g>
								<g>
									<g>
										<g>
											<g>
												<g>
													<g>
														<g>
															<g>
																<path fill="#662D91" d="M3.071,7.651h0.121c0.027,0,0.049-0.022,0.049-0.049c0-0.027-0.022-0.049-0.049-0.049H3.071
																	c-0.027,0-0.049,0.022-0.049,0.049C3.022,7.629,3.044,7.651,3.071,7.651z"/>
															</g>
														</g>
													</g>
												</g>
											</g>
										</g>
									</g>
								</g>
							</g>
						</g>
					</g>
				</g>
			</g>
		</g>
		<g>
			<g>
				<g>
					<g>
						<g>
							<g>
								<g>
									<g>
										<g>
											<g>
												<g>
													<g>
														<g>
															<g>
																<g>
																	<path fill="#E9F6FA" d="M2.015,14.361h4.991c0.27,0,0.489-0.219,0.489-0.489c0-0.27-0.219-0.489-0.489-0.489H2.015
																		c-0.27,0-0.489,0.219-0.489,0.489C1.526,14.142,1.745,14.361,2.015,14.361z"/>
																</g>
															</g>
														</g>
													</g>
												</g>
											</g>
										</g>
									</g>
								</g>
							</g>
						</g>
					</g>
				</g>
			</g>
			<g>
				<g>
					<g>
						<g>
							<g>
								<g>
									<g>
										<g>
											<g>
												<g>
													<g>
														<g>
															<g>
																<g>
																	<path fill="#E9F6FA" d="M3.563,12.246h3.934c0.27,0,0.489-0.219,0.489-0.489s-0.219-0.489-0.489-0.489H3.563
																		c-0.27,0-0.489,0.219-0.489,0.489S3.292,12.246,3.563,12.246z"/>
																</g>
															</g>
														</g>
													</g>
												</g>
											</g>
										</g>
									</g>
								</g>
							</g>
						</g>
					</g>
				</g>
			</g>
			<g>
				<g>
					<g>
						<g>
							<g>
								<g>
									<g>
										<g>
											<g>
												<g>
													<g>
														<g>
															<g>
																<g>
																	<path fill="#E9F6FA" d="M3.072,16.651H6.83c0.27,0,0.489-0.219,0.489-0.489S7.1,15.672,6.83,15.672H3.072
																		c-0.27,0-0.489,0.219-0.489,0.489S2.802,16.651,3.072,16.651z"/>
																</g>
															</g>
														</g>
													</g>
												</g>
											</g>
										</g>
									</g>
								</g>
							</g>
						</g>
					</g>
				</g>
			</g>
			<g>
				<g>
					<g>
						<g>
							<g>
								<g>
									<g>
										<g>
											<g>
												<g>
													<g>
														<g>
															<g>
																<g>
																	<path fill="#E9F6FA" d="M6.909,16.651h3.758c0.27,0,0.489-0.219,0.489-0.489s-0.219-0.489-0.489-0.489H6.909
																		c-0.27,0-0.489,0.219-0.489,0.489S6.639,16.651,6.909,16.651z"/>
																</g>
															</g>
														</g>
													</g>
												</g>
											</g>
										</g>
									</g>
								</g>
							</g>
						</g>
					</g>
				</g>
			</g>
			<g>
				<g>
					<g>
						<g>
							<g>
								<g>
									<g>
										<g>
											<g>
												<g>
													<g>
														<g>
															<g>
																<g>
																	<path fill="#E9F6FA" d="M0.489,16.651h0.957c0.27,0,0.489-0.219,0.489-0.489s-0.219-0.489-0.489-0.489H0.489
																		C0.219,15.672,0,15.891,0,16.161C0,16.432,0.219,16.651,0.489,16.651z"/>
																</g>
															</g>
														</g>
													</g>
												</g>
											</g>
										</g>
									</g>
								</g>
							</g>
						</g>
					</g>
				</g>
			</g>
		</g>
		<g>
			<g>
				<g>
					<g>
						<g>
							<g>
								<g>
									<g>
										<g>
											<g>
												<g>
													<g>
														<g>
															<g>
																<path fill="#8DC63F" d="M2.29,12.827c0.049,0,0.088-0.039,0.088-0.088v-0.143c0-0.049-0.039-0.088-0.088-0.088
																	s-0.088,0.039-0.088,0.088v0.143C2.202,12.787,2.241,12.827,2.29,12.827z"/>
															</g>
														</g>
													</g>
												</g>
											</g>
										</g>
									</g>
								</g>
							</g>
						</g>
					</g>
				</g>
			</g>
			<g>
				<g>
					<g>
						<g>
							<g>
								<g>
									<g>
										<g>
											<g>
												<g>
													<g>
														<g>
															<g>
																<path fill="#8DC63F" d="M2.351,12.874h0.143c0.049,0,0.088-0.039,0.088-0.088c0-0.049-0.039-0.088-0.088-0.088
																	H2.351c-0.049,0-0.088,0.039-0.088,0.088C2.263,12.835,2.302,12.874,2.351,12.874z"/>
															</g>
														</g>
													</g>
												</g>
											</g>
										</g>
									</g>
								</g>
							</g>
						</g>
					</g>
				</g>
			</g>
			<g>
				<g>
					<g>
						<g>
							<g>
								<g>
									<g>
										<g>
											<g>
												<g>
													<g>
														<g>
															<g>
																<path fill="#8DC63F" d="M2.303,13.078c0.049,0,0.088-0.039,0.088-0.088v-0.143c0-0.049-0.039-0.088-0.088-0.088
																	s-0.088,0.039-0.088,0.088v0.143C2.215,13.038,2.255,13.078,2.303,13.078z"/>
															</g>
														</g>
													</g>
												</g>
											</g>
										</g>
									</g>
								</g>
							</g>
						</g>
					</g>
				</g>
			</g>
			<g>
				<g>
					<g>
						<g>
							<g>
								<g>
									<g>
										<g>
											<g>
												<g>
													<g>
														<g>
															<g>
																<path fill="#8DC63F" d="M2.1,12.888h0.143c0.049,0,0.088-0.039,0.088-0.088c0-0.049-0.039-0.088-0.088-0.088H2.1
																	c-0.049,0-0.088,0.039-0.088,0.088C2.011,12.848,2.051,12.888,2.1,12.888z"/>
															</g>
														</g>
													</g>
												</g>
											</g>
										</g>
									</g>
								</g>
							</g>
						</g>
					</g>
				</g>
			</g>
		</g>
		<g>
			<g>
				<g>
					<g>
						<g>
							<g>
								<g>
									<g>
										<g>
											<g>
												<g>
													<g>
														<g>
															<g>
																<path fill="#3A2F85" d="M11.879,3.016c0.011,0,0.02-0.009,0.02-0.02V2.943c0-0.011-0.009-0.02-0.02-0.02
																	s-0.02,0.009-0.02,0.02v0.054C11.859,3.007,11.868,3.016,11.879,3.016z"/>
															</g>
														</g>
													</g>
												</g>
											</g>
										</g>
									</g>
								</g>
							</g>
						</g>
					</g>
				</g>
			</g>
			<g>
				<g>
					<g>
						<g>
							<g>
								<g>
									<g>
										<g>
											<g>
												<g>
													<g>
														<g>
															<g>
																<path fill="#3A2F85" d="M11.916,3.026c0.007,0,0.013-0.004,0.017-0.01l0.027-0.046
																	c0.005-0.009,0.002-0.021-0.007-0.027c-0.009-0.005-0.021-0.002-0.027,0.007l-0.027,0.046
																	c-0.005,0.009-0.002,0.021,0.007,0.027C11.909,3.025,11.912,3.026,11.916,3.026z"/>
															</g>
														</g>
													</g>
												</g>
											</g>
										</g>
									</g>
								</g>
							</g>
						</g>
					</g>
				</g>
			</g>
			<g>
				<g>
					<g>
						<g>
							<g>
								<g>
									<g>
										<g>
											<g>
												<g>
													<g>
														<g>
															<g>
																<path fill="#3A2F85" d="M11.943,3.053c0.003,0,0.007-0.001,0.01-0.003l0.046-0.027
																	c0.009-0.005,0.013-0.017,0.007-0.027c-0.005-0.009-0.017-0.013-0.027-0.007l-0.046,0.027
																	c-0.009,0.005-0.013,0.017-0.007,0.027C11.929,3.049,11.936,3.053,11.943,3.053z"/>
															</g>
														</g>
													</g>
												</g>
											</g>
										</g>
									</g>
								</g>
							</g>
						</g>
					</g>
				</g>
			</g>
			<g>
				<g>
					<g>
						<g>
							<g>
								<g>
									<g>
										<g>
											<g>
												<g>
													<g>
														<g>
															<g>
																<path fill="#3A2F85" d="M11.953,3.09h0.054c0.011,0,0.02-0.009,0.02-0.02c0-0.011-0.009-0.02-0.02-0.02h-0.054
																	c-0.011,0-0.02,0.009-0.02,0.02C11.933,3.081,11.942,3.09,11.953,3.09z"/>
															</g>
														</g>
													</g>
												</g>
											</g>
										</g>
									</g>
								</g>
							</g>
						</g>
					</g>
				</g>
			</g>
			<g>
				<g>
					<g>
						<g>
							<g>
								<g>
									<g>
										<g>
											<g>
												<g>
													<g>
														<g>
															<g>
																<path fill="#3A2F85" d="M11.989,3.153c0.007,0,0.013-0.004,0.017-0.01c0.005-0.009,0.002-0.021-0.007-0.027
																	L11.952,3.09c-0.009-0.005-0.021-0.002-0.027,0.007c-0.005,0.009-0.002,0.021,0.007,0.027l0.046,0.027
																	C11.982,3.153,11.986,3.153,11.989,3.153z"/>
															</g>
														</g>
													</g>
												</g>
											</g>
										</g>
									</g>
								</g>
							</g>
						</g>
					</g>
				</g>
			</g>
			<g>
				<g>
					<g>
						<g>
							<g>
								<g>
									<g>
										<g>
											<g>
												<g>
													<g>
														<g>
															<g>
																<path fill="#3A2F85" d="M11.942,3.2c0.003,0,0.007-0.001,0.01-0.003c0.009-0.005,0.013-0.017,0.007-0.027
																	l-0.027-0.046c-0.005-0.009-0.017-0.013-0.027-0.007c-0.009,0.005-0.013,0.017-0.007,0.027l0.027,0.046
																	C11.929,3.197,11.936,3.2,11.942,3.2z"/>
															</g>
														</g>
													</g>
												</g>
											</g>
										</g>
									</g>
								</g>
							</g>
						</g>
					</g>
				</g>
			</g>
			<g>
				<g>
					<g>
						<g>
							<g>
								<g>
									<g>
										<g>
											<g>
												<g>
													<g>
														<g>
															<g>
																<path fill="#3A2F85" d="M11.879,3.217c0.011,0,0.02-0.009,0.02-0.02V3.144c0-0.011-0.009-0.02-0.02-0.02
																	s-0.02,0.009-0.02,0.02v0.054C11.859,3.208,11.868,3.217,11.879,3.217z"/>
															</g>
														</g>
													</g>
												</g>
											</g>
										</g>
									</g>
								</g>
							</g>
						</g>
					</g>
				</g>
			</g>
			<g>
				<g>
					<g>
						<g>
							<g>
								<g>
									<g>
										<g>
											<g>
												<g>
													<g>
														<g>
															<g>
																<path fill="#3A2F85" d="M11.815,3.2c0.007,0,0.013-0.004,0.017-0.01l0.027-0.046
																	c0.005-0.009,0.002-0.021-0.007-0.027c-0.009-0.005-0.021-0.002-0.027,0.007l-0.027,0.046
																	c-0.005,0.009-0.002,0.021,0.007,0.027C11.808,3.199,11.812,3.2,11.815,3.2z"/>
															</g>
														</g>
													</g>
												</g>
											</g>
										</g>
									</g>
								</g>
							</g>
						</g>
					</g>
				</g>
			</g>
			<g>
				<g>
					<g>
						<g>
							<g>
								<g>
									<g>
										<g>
											<g>
												<g>
													<g>
														<g>
															<g>
																<path fill="#3A2F85" d="M11.769,3.153c0.003,0,0.007-0.001,0.01-0.003l0.046-0.027
																	c0.009-0.005,0.013-0.017,0.007-0.027c-0.005-0.009-0.017-0.013-0.027-0.007l-0.046,0.027
																	c-0.009,0.005-0.013,0.017-0.007,0.027C11.755,3.15,11.762,3.153,11.769,3.153z"/>
															</g>
														</g>
													</g>
												</g>
											</g>
										</g>
									</g>
								</g>
							</g>
						</g>
					</g>
				</g>
			</g>
			<g>
				<g>
					<g>
						<g>
							<g>
								<g>
									<g>
										<g>
											<g>
												<g>
													<g>
														<g>
															<g>
																<path fill="#3A2F85" d="M11.751,3.09h0.054c0.011,0,0.02-0.009,0.02-0.02c0-0.011-0.009-0.02-0.02-0.02h-0.054
																	c-0.011,0-0.02,0.009-0.02,0.02C11.732,3.081,11.741,3.09,11.751,3.09z"/>
															</g>
														</g>
													</g>
												</g>
											</g>
										</g>
									</g>
								</g>
							</g>
						</g>
					</g>
				</g>
			</g>
			<g>
				<g>
					<g>
						<g>
							<g>
								<g>
									<g>
										<g>
											<g>
												<g>
													<g>
														<g>
															<g>
																<path fill="#3A2F85" d="M11.815,3.053c0.007,0,0.013-0.004,0.017-0.01c0.005-0.009,0.002-0.021-0.007-0.027
																	L11.778,2.99c-0.009-0.005-0.021-0.002-0.027,0.007c-0.005,0.009-0.002,0.021,0.007,0.027l0.046,0.027
																	C11.808,3.052,11.812,3.053,11.815,3.053z"/>
															</g>
														</g>
													</g>
												</g>
											</g>
										</g>
									</g>
								</g>
							</g>
						</g>
					</g>
				</g>
			</g>
			<g>
				<g>
					<g>
						<g>
							<g>
								<g>
									<g>
										<g>
											<g>
												<g>
													<g>
														<g>
															<g>
																<path fill="#3A2F85" d="M11.842,3.026c0.003,0,0.007-0.001,0.01-0.003c0.009-0.005,0.013-0.017,0.007-0.027
																	L11.832,2.95c-0.005-0.009-0.017-0.013-0.027-0.007c-0.009,0.005-0.013,0.017-0.007,0.027l0.027,0.046
																	C11.829,3.022,11.835,3.026,11.842,3.026z"/>
															</g>
														</g>
													</g>
												</g>
											</g>
										</g>
									</g>
								</g>
							</g>
						</g>
					</g>
				</g>
			</g>
		</g>
		<g>
			<g>
				<g>
					<g>
						<g>
							<g>
								<g>
									<g>
										<g>
											<g>
												<g>
													<g>
														<g>
															<g>
																<path fill="#B4E1F3" d="M2.423,5.81c0.054,0,0.098-0.044,0.098-0.098S2.477,5.614,2.423,5.614
																	c-0.27,0-0.489-0.22-0.489-0.489c0-0.113,0.037-0.219,0.108-0.307C2.076,4.775,2.069,4.714,2.027,4.68
																	C1.985,4.646,1.923,4.652,1.889,4.694c-0.098,0.121-0.152,0.274-0.152,0.43C1.737,5.502,2.045,5.81,2.423,5.81z"/>
															</g>
														</g>
													</g>
												</g>
											</g>
										</g>
									</g>
								</g>
							</g>
						</g>
					</g>
				</g>
			</g>
			<g>
				<g>
					<g>
						<g>
							<g>
								<g>
									<g>
										<g>
											<g>
												<g>
													<g>
														<g>
															<g>
																<path fill="#B4E1F3" d="M2.197,4.68c0.013,0,0.025-0.002,0.038-0.008c0.02-0.009,0.042-0.016,0.063-0.021
																	c0.052-0.014,0.084-0.067,0.07-0.12S2.3,4.448,2.248,4.462C2.218,4.47,2.188,4.48,2.16,4.492
																	C2.11,4.512,2.086,4.57,2.107,4.62C2.122,4.657,2.159,4.68,2.197,4.68z"/>
															</g>
														</g>
													</g>
												</g>
											</g>
										</g>
									</g>
								</g>
							</g>
						</g>
					</g>
				</g>
			</g>
			<g>
				<g>
					<g>
						<g>
							<g>
								<g>
									<g>
										<g>
											<g>
												<g>
													<g>
														<g>
															<g>
																<path fill="#B4E1F3" d="M2.829,5.647c0.024,0,0.049-0.009,0.068-0.027c0.136-0.131,0.212-0.306,0.212-0.495
																	c0-0.339-0.253-0.63-0.588-0.678c-0.054-0.008-0.103,0.03-0.111,0.083C2.402,4.583,2.439,4.632,2.492,4.64
																	c0.239,0.034,0.419,0.242,0.419,0.484c0,0.135-0.054,0.26-0.151,0.354C2.722,5.515,2.72,5.577,2.758,5.616
																	C2.777,5.637,2.803,5.647,2.829,5.647z"/>
															</g>
														</g>
													</g>
												</g>
											</g>
										</g>
									</g>
								</g>
							</g>
						</g>
					</g>
				</g>
			</g>
		</g>
		<g>
			<g>
				<g>
					<g>
						<g>
							<g>
								<g>
									<g>
										<g>
											<g>
												<g>
													<g>
														<g>
															<g>
																<path fill="#B4E1F3" d="M8.298,1.364c0.054,0,0.098-0.044,0.098-0.098S8.353,1.169,8.298,1.169
																	c-0.27,0-0.489-0.22-0.489-0.489c0-0.113,0.037-0.219,0.108-0.307C7.951,0.33,7.945,0.268,7.903,0.234
																	C7.861,0.2,7.799,0.207,7.765,0.249C7.667,0.37,7.613,0.523,7.613,0.679C7.613,1.057,7.921,1.364,8.298,1.364z"/>
															</g>
														</g>
													</g>
												</g>
											</g>
										</g>
									</g>
								</g>
							</g>
						</g>
					</g>
				</g>
			</g>
			<g>
				<g>
					<g>
						<g>
							<g>
								<g>
									<g>
										<g>
											<g>
												<g>
													<g>
														<g>
															<g>
																<path fill="#B4E1F3" d="M8.073,0.235c0.013,0,0.025-0.002,0.038-0.008c0.021-0.009,0.042-0.016,0.063-0.021
																	c0.052-0.014,0.084-0.067,0.07-0.12c-0.014-0.052-0.067-0.084-0.12-0.07c-0.03,0.008-0.06,0.018-0.089,0.03
																	c-0.05,0.021-0.074,0.078-0.053,0.128C7.998,0.212,8.035,0.235,8.073,0.235z"/>
															</g>
														</g>
													</g>
												</g>
											</g>
										</g>
									</g>
								</g>
							</g>
						</g>
					</g>
				</g>
			</g>
			<g>
				<g>
					<g>
						<g>
							<g>
								<g>
									<g>
										<g>
											<g>
												<g>
													<g>
														<g>
															<g>
																<path fill="#B4E1F3" d="M8.704,1.201c0.024,0,0.049-0.009,0.068-0.027c0.136-0.131,0.212-0.306,0.212-0.495
																	c0-0.339-0.253-0.63-0.588-0.678c-0.053-0.008-0.103,0.03-0.111,0.083c-0.008,0.054,0.03,0.103,0.083,0.111
																	c0.239,0.034,0.419,0.242,0.419,0.484c0,0.135-0.054,0.26-0.151,0.354C8.598,1.07,8.596,1.132,8.634,1.171
																	C8.653,1.191,8.679,1.201,8.704,1.201z"/>
															</g>
														</g>
													</g>
												</g>
											</g>
										</g>
									</g>
								</g>
							</g>
						</g>
					</g>
				</g>
			</g>
		</g>
		<g>
			<g>
				<g>
					<g>
						<g>
							<g>
								<g>
									<g>
										<g>
											<g>
												<g>
													<g>
														<g>
															<g>
																<path fill="#FFDE17" d="M12.817,1.98c0.049,0,0.088-0.039,0.088-0.088V1.524c0-0.049-0.039-0.088-0.088-0.088
																	s-0.088,0.039-0.088,0.088v0.369C12.729,1.941,12.769,1.98,12.817,1.98z"/>
															</g>
														</g>
													</g>
												</g>
											</g>
										</g>
									</g>
								</g>
							</g>
						</g>
					</g>
				</g>
			</g>
			<g>
				<g>
					<g>
						<g>
							<g>
								<g>
									<g>
										<g>
											<g>
												<g>
													<g>
														<g>
															<g>
																<path fill="#FFDE17" d="M12.975,2.103h0.369c0.049,0,0.088-0.039,0.088-0.088c0-0.049-0.039-0.088-0.088-0.088
																	h-0.369c-0.049,0-0.088,0.039-0.088,0.088C12.887,2.064,12.927,2.103,12.975,2.103z"/>
															</g>
														</g>
													</g>
												</g>
											</g>
										</g>
									</g>
								</g>
							</g>
						</g>
					</g>
				</g>
			</g>
			<g>
				<g>
					<g>
						<g>
							<g>
								<g>
									<g>
										<g>
											<g>
												<g>
													<g>
														<g>
															<g>
																<path fill="#FFDE17" d="M12.852,2.63c0.049,0,0.088-0.039,0.088-0.088V2.173c0-0.049-0.039-0.088-0.088-0.088
																	s-0.088,0.039-0.088,0.088v0.369C12.764,2.59,12.804,2.63,12.852,2.63z"/>
															</g>
														</g>
													</g>
												</g>
											</g>
										</g>
									</g>
								</g>
							</g>
						</g>
					</g>
				</g>
			</g>
			<g>
				<g>
					<g>
						<g>
							<g>
								<g>
									<g>
										<g>
											<g>
												<g>
													<g>
														<g>
															<g>
																<path fill="#FFDE17" d="M12.326,2.138h0.369c0.049,0,0.088-0.039,0.088-0.088c0-0.049-0.039-0.088-0.088-0.088
																	h-0.369c-0.049,0-0.088,0.039-0.088,0.088C12.238,2.099,12.277,2.138,12.326,2.138z"/>
															</g>
														</g>
													</g>
												</g>
											</g>
										</g>
									</g>
								</g>
							</g>
						</g>
					</g>
				</g>
			</g>
		</g>
		<g>
			<g>
				<g>
					<g>
						<g>
							<g>
								<g>
									<g>
										<g>
											<g>
												<g>
													<g>
														<g>
															<g>
																<path fill="#EE2A7B" d="M13.126,13.895c0.027,0,0.049-0.022,0.049-0.049v-0.121c0-0.027-0.022-0.049-0.049-0.049
																	c-0.027,0-0.049,0.022-0.049,0.049v0.121C13.077,13.873,13.099,13.895,13.126,13.895z"/>
															</g>
														</g>
													</g>
												</g>
											</g>
										</g>
									</g>
								</g>
							</g>
						</g>
					</g>
				</g>
			</g>
			<g>
				<g>
					<g>
						<g>
							<g>
								<g>
									<g>
										<g>
											<g>
												<g>
													<g>
														<g>
															<g>
																<path fill="#EE2A7B" d="M13.178,13.935h0.121c0.027,0,0.049-0.022,0.049-0.049c0-0.027-0.022-0.049-0.049-0.049
																	h-0.121c-0.027,0-0.049,0.022-0.049,0.049C13.129,13.913,13.151,13.935,13.178,13.935z"/>
															</g>
														</g>
													</g>
												</g>
											</g>
										</g>
									</g>
								</g>
							</g>
						</g>
					</g>
				</g>
			</g>
			<g>
				<g>
					<g>
						<g>
							<g>
								<g>
									<g>
										<g>
											<g>
												<g>
													<g>
														<g>
															<g>
																<path fill="#EE2A7B" d="M13.137,14.108c0.027,0,0.049-0.022,0.049-0.049v-0.121c0-0.027-0.022-0.049-0.049-0.049
																	s-0.049,0.022-0.049,0.049v0.121C13.088,14.086,13.11,14.108,13.137,14.108z"/>
															</g>
														</g>
													</g>
												</g>
											</g>
										</g>
									</g>
								</g>
							</g>
						</g>
					</g>
				</g>
			</g>
			<g>
				<g>
					<g>
						<g>
							<g>
								<g>
									<g>
										<g>
											<g>
												<g>
													<g>
														<g>
															<g>
																<path fill="#EE2A7B" d="M12.965,13.947h0.121c0.027,0,0.049-0.022,0.049-0.049c0-0.027-0.022-0.049-0.049-0.049
																	h-0.121c-0.027,0-0.049,0.022-0.049,0.049C12.916,13.925,12.938,13.947,12.965,13.947z"/>
															</g>
														</g>
													</g>
												</g>
											</g>
										</g>
									</g>
								</g>
							</g>
						</g>
					</g>
				</g>
			</g>
		</g>
		<g>
			<g>
				<g>
					<g>
						<g>
							<g>
								<g>
									<g>
										<g>
											<g>
												<g>
													<g>
														<g>
															<path fill="#8DC63F" d="M14.839,8.023c0-0.127,0.104-0.231,0.231-0.231c0.127,0,0.231,0.104,0.231,0.231
																c0,0.127-0.104,0.231-0.231,0.231C14.943,8.254,14.839,8.15,14.839,8.023z M14.898,8.023
																c0,0.095,0.077,0.172,0.172,0.172c0.095,0,0.172-0.077,0.172-0.172c0-0.095-0.077-0.172-0.172-0.172
																C14.976,7.851,14.898,7.928,14.898,8.023z"/>
														</g>
													</g>
												</g>
											</g>
										</g>
									</g>
								</g>
							</g>
						</g>
					</g>
				</g>
			</g>
		</g>
		<g>
			<g>
				<g>
					<g>
						<g>
							<g>
								<g>
									<g>
										<g>
											<g>
												<g>
													<g>
														<g>
															<path fill="#8DC63F" d="M12.787,4.542c0-0.214,0.174-0.388,0.388-0.388c0.214,0,0.388,0.174,0.388,0.388
																S13.389,4.93,13.175,4.93C12.961,4.93,12.787,4.756,12.787,4.542z M12.983,4.542c0,0.106,0.086,0.192,0.192,0.192
																c0.106,0,0.192-0.086,0.192-0.192c0-0.106-0.086-0.192-0.192-0.192C13.069,4.35,12.983,4.436,12.983,4.542z"/>
														</g>
													</g>
												</g>
											</g>
										</g>
									</g>
								</g>
							</g>
						</g>
					</g>
				</g>
			</g>
		</g>
		<g>
			<g>
				<g>
					<g>
						<g>
							<g>
								<g>
									<g>
										<g>
											<g>
												<g>
													<g>
														<path fill="none" stroke="#000000" stroke-width="20" stroke-linecap="round" stroke-miterlimit="10" d="
															M9.432,10.843"/>
													</g>
												</g>
											</g>
										</g>
									</g>
								</g>
							</g>
						</g>
					</g>
				</g>
			</g>
		</g>
		<g>
			<g>
				<g>
					<g>
						<g>
							<g>
								<g>
									<g>
										<g>
											<g>
												<g>
													<g>
														<path fill="none" stroke="#000000" stroke-width="20" stroke-miterlimit="10" d="M10.956,7.458"/>
													</g>
												</g>
											</g>
										</g>
									</g>
								</g>
							</g>
						</g>
					</g>
				</g>
			</g>
		</g>
		<g>
			<g>
				<g>
					<g>
						<g>
							<g>
								<g>
									<g>
										<g>
											<g>
												<g>
													<g>
														<path fill="#F37478" d="M11.469,7.642"/>
													</g>
												</g>
											</g>
										</g>
									</g>
								</g>
							</g>
						</g>
					</g>
				</g>
			</g>
		</g>
		<g>
			<g>
				<g>
					<g>
						<g>
							<g>
								<g>
									<g>
										<g>
											<g>
												<g>
													<g>
														<path fill="#3A2F85" d="M11.449,15.829H4.227c-0.054,0-0.098-0.044-0.098-0.098c0-0.054,0.044-0.098,0.098-0.098
															h7.222c0.054,0,0.098,0.044,0.098,0.098C11.547,15.785,11.503,15.829,11.449,15.829z"/>
													</g>
												</g>
											</g>
										</g>
									</g>
								</g>
							</g>
						</g>
					</g>
				</g>
			</g>
		</g>
		<g>
			<g>
				<g>
					<g>
						<g>
							<g>
								<g>
									<g>
										<g>
											<g>
												<g>
													<g>
														<path fill="#3A2F85" d="M13.68,15.829h-1.644c-0.054,0-0.098-0.044-0.098-0.098c0-0.054,0.044-0.098,0.098-0.098
															h1.644c0.054,0,0.098,0.044,0.098,0.098C13.778,15.785,13.734,15.829,13.68,15.829z"/>
													</g>
												</g>
											</g>
										</g>
									</g>
								</g>
							</g>
						</g>
					</g>
				</g>
			</g>
		</g>
		<g opacity="0.7">
			<g>
				<g>
					<g>
						<g>
							<g>
								<g>
									<g>
										<g>
											<g>
												<g>
													<g>
														<path fill="#3A2F85" d="M12.623,16.299H5.401c-0.054,0-0.098-0.044-0.098-0.098s0.044-0.098,0.098-0.098h7.222
															c0.054,0,0.098,0.044,0.098,0.098S12.677,16.299,12.623,16.299z"/>
													</g>
												</g>
											</g>
										</g>
									</g>
								</g>
							</g>
						</g>
					</g>
				</g>
			</g>
		</g>
		<g opacity="0.7">
			<g>
				<g>
					<g>
						<g>
							<g>
								<g>
									<g>
										<g>
											<g>
												<g>
													<g>
														<path fill="#3A2F85" d="M4.814,16.299H3.17c-0.054,0-0.098-0.044-0.098-0.098s0.044-0.098,0.098-0.098h1.644
															c0.054,0,0.098,0.044,0.098,0.098S4.868,16.299,4.814,16.299z"/>
													</g>
												</g>
											</g>
										</g>
									</g>
								</g>
							</g>
						</g>
					</g>
				</g>
			</g>
		</g>
		<g opacity="0.2">
			<g>
				<g>
					<g>
						<g>
							<g>
								<g>
									<g>
										<g>
											<g>
												<g>
													<g>
														<path fill="#3A2F85" d="M10.709,16.656H9.436c-0.054,0-0.098-0.044-0.098-0.098s0.044-0.098,0.098-0.098h1.272
															c0.054,0,0.098,0.044,0.098,0.098S10.763,16.656,10.709,16.656z"/>
													</g>
												</g>
											</g>
										</g>
									</g>
								</g>
							</g>
						</g>
					</g>
				</g>
			</g>
		</g>
		<g opacity="0.2">
			<g>
				<g>
					<g>
						<g>
							<g>
								<g>
									<g>
										<g>
											<g>
												<g>
													<g>
														<path fill="#3A2F85" d="M9.104,16.656H8.379c-0.054,0-0.098-0.044-0.098-0.098s0.044-0.098,0.098-0.098h0.724
															c0.054,0,0.098,0.044,0.098,0.098S9.158,16.656,9.104,16.656z"/>
													</g>
												</g>
											</g>
										</g>
									</g>
								</g>
							</g>
						</g>
					</g>
				</g>
			</g>
		</g>
		<g opacity="0.2">
			<g>
				<g>
					<g>
						<g>
							<g>
								<g>
									<g>
										<g>
											<g>
												<g>
													<g>
														<path fill="#3A2F85" d="M8.066,16.656H6.97c-0.054,0-0.098-0.044-0.098-0.098S6.916,16.46,6.97,16.46h1.096
															c0.054,0,0.098,0.044,0.098,0.098S8.12,16.656,8.066,16.656z"/>
													</g>
												</g>
											</g>
										</g>
									</g>
								</g>
							</g>
						</g>
					</g>
				</g>
			</g>
		</g>
	</g>
	<g>
		<g>
			<g>
				<g>
					<g>
						<g>
							<g>
								<path fill="#F8D854" d="M12.91,4.446l-1.343,0.663L11.15,5.314c0.032-0.221,0.02-0.454-0.043-0.686
									c-0.062-0.227-0.169-0.431-0.31-0.606C10.797,4.021,11.93,3.833,12.91,4.446z"/>
							</g>
						</g>
					</g>
				</g>
			</g>
		</g>
		<g>
			<g>
				<g>
					<g>
						<g>
							<g>
								<path fill="#3A2F85" d="M11.15,5.443c-0.027,0-0.054-0.008-0.076-0.025c-0.039-0.028-0.059-0.076-0.052-0.123
									c0.031-0.211,0.017-0.424-0.04-0.634c-0.056-0.205-0.152-0.393-0.286-0.559c-0.029-0.036-0.037-0.084-0.02-0.127
									c0.016-0.043,0.054-0.074,0.1-0.082c0.007-0.001,0.178-0.029,0.443-0.029c0.459,0,1.136,0.082,1.76,0.471
									c0.04,0.025,0.063,0.069,0.061,0.116c-0.002,0.047-0.03,0.089-0.072,0.11l-1.343,0.663L11.207,5.43
									C11.189,5.439,11.17,5.443,11.15,5.443z M11.031,4.129c0.089,0.144,0.156,0.3,0.201,0.465
									c0.045,0.167,0.067,0.335,0.065,0.504l0.213-0.105l1.123-0.554c-0.511-0.257-1.04-0.315-1.414-0.315
									C11.149,4.123,11.086,4.126,11.031,4.129z"/>
							</g>
						</g>
					</g>
				</g>
			</g>
		</g>
		<g>
			<g>
				<g>
					<g>
						<g>
							<g>
								<path fill="#3A2F85" d="M1.899,8.224c0.607,0,1.1-0.494,1.1-1.1s-0.494-1.1-1.1-1.1c-0.183,0-0.365,0.046-0.525,0.133
									C1.303,6.195,1.277,6.284,1.316,6.355c0.039,0.071,0.128,0.097,0.199,0.059c0.117-0.064,0.25-0.097,0.385-0.097
									c0.445,0,0.807,0.362,0.807,0.807c0,0.445-0.362,0.807-0.807,0.807S1.092,7.569,1.092,7.124
									c0-0.162,0.048-0.318,0.138-0.451C1.275,6.606,1.257,6.515,1.19,6.469C1.123,6.424,1.032,6.442,0.987,6.509
									C0.864,6.691,0.799,6.904,0.799,7.124C0.799,7.731,1.292,8.224,1.899,8.224z"/>
							</g>
						</g>
					</g>
				</g>
			</g>
		</g>
		<g>
			<g>
				<g>
					<g>
						<g>
							<g>
								<path fill="#FCD578" d="M2.863,7.124c0,0.527-0.427,0.954-0.954,0.954c-0.19,0-0.367-0.055-0.515-0.151
									C1.13,7.757,0.955,7.461,0.955,7.124c0-0.527,0.427-0.954,0.954-0.954c0.206,0,0.396,0.065,0.552,0.176
									C2.704,6.519,2.863,6.803,2.863,7.124z"/>
							</g>
						</g>
					</g>
				</g>
			</g>
		</g>
		<g>
			<g>
				<g>
					<g>
						<g>
							<g>
								<path fill="#FCECC8" d="M2.863,7.124c0,0.527-0.427,0.954-0.954,0.954c-0.19,0-0.367-0.055-0.515-0.151l1.067-1.581
									C2.704,6.519,2.863,6.803,2.863,7.124z"/>
							</g>
						</g>
					</g>
				</g>
			</g>
		</g>
		<g>
			<g>
				<g>
					<g>
						<g>
							<g>
								<path fill="#3A2F85" d="M3.388,7.897c0.607,0,1.1-0.494,1.1-1.1s-0.494-1.1-1.1-1.1c-0.183,0-0.365,0.046-0.525,0.133
									C2.793,5.868,2.766,5.957,2.805,6.028c0.039,0.071,0.128,0.097,0.199,0.059c0.117-0.064,0.25-0.097,0.385-0.097
									c0.445,0,0.807,0.362,0.807,0.807S3.833,7.604,3.388,7.604S2.581,7.241,2.581,6.796c0-0.162,0.048-0.318,0.138-0.451
									c0.045-0.067,0.028-0.158-0.039-0.204C2.612,6.096,2.521,6.114,2.476,6.181C2.353,6.363,2.288,6.576,2.288,6.796
									C2.288,7.403,2.782,7.897,3.388,7.897z"/>
							</g>
						</g>
					</g>
				</g>
			</g>
		</g>
		<g>
			<g>
				<g>
					<g>
						<g>
							<g>
								<path fill="#F37478" d="M7.935,5.654C7.939,5.665,7.944,5.677,7.948,5.69l-0.027,0.01C7.833,5.727,7.739,5.742,7.642,5.742
									c-0.513,0-0.929-0.416-0.929-0.929c0-0.441,0.307-0.81,0.72-0.905C7.385,3.798,7.36,3.676,7.36,3.548
									c0-0.513,0.416-0.929,0.929-0.929c0.216,0,0.415,0.074,0.573,0.198c0.095-0.412,0.464-0.719,0.905-0.719
									c0.513,0,0.929,0.416,0.929,0.929c0,0.255-0.102,0.485-0.268,0.653c-0.329-0.223-0.736-0.33-1.152-0.277
									C8.939,3.445,8.642,3.581,8.405,3.78C7.862,4.234,7.686,4.992,7.935,5.654z"/>
							</g>
						</g>
					</g>
				</g>
			</g>
		</g>
		<g>
			<g>
				<g>
					<g>
						<g>
							<g>
								<path fill="#3A2F85" d="M7.642,5.872c-0.584,0-1.058-0.475-1.058-1.058c0-0.241,0.083-0.476,0.234-0.663
									c0.118-0.147,0.275-0.26,0.449-0.326C7.242,3.735,7.23,3.642,7.23,3.548c0-0.583,0.475-1.058,1.058-1.058
									c0.178,0,0.349,0.043,0.502,0.126c0.068-0.16,0.175-0.304,0.312-0.414c0.187-0.151,0.422-0.234,0.663-0.234
									c0.583,0,1.058,0.475,1.058,1.058c0,0.281-0.109,0.545-0.306,0.744c-0.044,0.044-0.113,0.051-0.164,0.016
									c-0.26-0.176-0.56-0.268-0.87-0.268c-0.064,0-0.129,0.004-0.193,0.012C8.992,3.569,8.715,3.69,8.488,3.88
									C7.995,4.291,7.822,4.986,8.056,5.608C8.06,5.62,8.065,5.632,8.07,5.645c0.012,0.032,0.01,0.068-0.004,0.099
									C8.051,5.776,8.024,5.8,7.992,5.811l-0.027,0.01C7.963,5.822,7.961,5.822,7.96,5.823C7.857,5.855,7.75,5.872,7.642,5.872z
									 M8.288,2.748c-0.441,0-0.799,0.359-0.799,0.799c0,0.108,0.021,0.213,0.062,0.311c0.015,0.035,0.013,0.075-0.004,0.109
									C7.53,4.001,7.499,4.026,7.462,4.035c-0.173,0.04-0.33,0.139-0.443,0.278C6.903,4.456,6.842,4.629,6.842,4.814
									c0,0.441,0.359,0.799,0.8,0.799c0.046,0,0.093-0.004,0.138-0.012c-0.22-0.699-0.009-1.459,0.542-1.92
									C8.587,3.459,8.91,3.319,9.257,3.274C9.332,3.265,9.408,3.26,9.484,3.26c0.323,0,0.638,0.087,0.918,0.252
									c0.106-0.138,0.163-0.307,0.163-0.484c0-0.441-0.359-0.8-0.799-0.8c-0.184,0-0.357,0.061-0.501,0.176
									C9.126,2.516,9.027,2.673,8.987,2.846c-0.01,0.043-0.041,0.078-0.083,0.093c-0.042,0.015-0.088,0.007-0.123-0.02
									C8.639,2.807,8.469,2.748,8.288,2.748z"/>
							</g>
						</g>
					</g>
				</g>
			</g>
		</g>
		<g>
			<g>
				<g>
					<g>
						<g>
							<g>
								<path fill="#F37478" d="M12.782,5.839c0.343,0.206,0.354,0.7,0.02,0.92c-0.126,0.083-0.268,0.123-0.41,0.123
									c-0.16,0-0.32-0.052-0.451-0.152c-0.078-0.088-0.159-0.174-0.243-0.257c-0.225-0.225-0.468-0.429-0.727-0.612
									c0.09-0.169,0.152-0.354,0.179-0.548l0.417-0.205L12.782,5.839z"/>
							</g>
						</g>
					</g>
				</g>
			</g>
		</g>
		<g>
			<g>
				<g>
					<g>
						<g>
							<g>
								<path fill="#3A2F85" d="M12.392,7.012c-0.191,0-0.379-0.064-0.53-0.179c-0.007-0.005-0.013-0.011-0.018-0.017
									c-0.078-0.088-0.158-0.172-0.237-0.251c-0.218-0.217-0.457-0.418-0.711-0.598c-0.053-0.038-0.07-0.109-0.039-0.167
									c0.084-0.158,0.14-0.328,0.165-0.505c0.006-0.042,0.033-0.079,0.071-0.098l0.417-0.205c0.039-0.019,0.086-0.018,0.124,0.005
									l1.216,0.731c0.199,0.12,0.322,0.33,0.327,0.563c0.005,0.233-0.108,0.448-0.302,0.577
									C12.73,6.962,12.564,7.012,12.392,7.012z M12.029,6.635c0.104,0.077,0.233,0.119,0.363,0.119
									c0.12,0,0.238-0.035,0.339-0.102c0.119-0.079,0.189-0.212,0.186-0.355c-0.003-0.143-0.078-0.273-0.201-0.346l-1.155-0.694
									L11.267,5.4c-0.027,0.146-0.071,0.286-0.132,0.421c0.233,0.171,0.452,0.36,0.654,0.561
									C11.87,6.461,11.95,6.546,12.029,6.635z"/>
							</g>
						</g>
					</g>
				</g>
			</g>
		</g>
		<g>
			<g>
				<g>
					<g>
						<g>
							<g>
								<path fill="#CDCCCC" d="M8.437,11.465c1.649-1.286,3.743,0.973,2.31,2.496c-0.019,0.02-0.039,0.041-0.059,0.061
									c-0.942,0.942-4.141,1.475-6.537-0.233c-0.11-0.079-0.072-0.251,0.061-0.277c0.749-0.146,2.519-0.555,3.25-1.286
									L8.437,11.465z"/>
							</g>
						</g>
					</g>
				</g>
			</g>
		</g>
		<g>
			<g>
				<g>
					<g>
						<g>
							<g>
								<path fill="#3A2F85" d="M6.546,9.11c0.607,0,1.1-0.494,1.1-1.1s-0.494-1.1-1.1-1.1c-0.183,0-0.365,0.046-0.525,0.133
									C5.95,7.081,5.924,7.17,5.962,7.241C6.001,7.312,6.09,7.338,6.161,7.3c0.117-0.064,0.25-0.097,0.385-0.097
									c0.445,0,0.807,0.362,0.807,0.807S6.991,8.817,6.546,8.817c-0.445,0-0.807-0.362-0.807-0.807
									c0-0.162,0.048-0.318,0.138-0.451C5.922,7.491,5.904,7.4,5.837,7.355C5.77,7.309,5.679,7.327,5.633,7.394
									C5.51,7.576,5.445,7.789,5.445,8.009C5.445,8.616,5.939,9.11,6.546,9.11z"/>
							</g>
						</g>
					</g>
				</g>
			</g>
		</g>
		<g>
			<g>
				<g>
					<g>
						<g>
							<g>
								<path fill="#FCD578" d="M7.51,8.009c0,0.527-0.427,0.954-0.954,0.954c-0.19,0-0.367-0.055-0.515-0.151
									c-0.264-0.17-0.439-0.466-0.439-0.803c0-0.527,0.427-0.954,0.954-0.954c0.206,0,0.396,0.065,0.552,0.176
									C7.351,7.404,7.51,7.688,7.51,8.009z"/>
							</g>
						</g>
					</g>
				</g>
			</g>
		</g>
		<g>
			<g>
				<g>
					<g>
						<g>
							<g>
								<path fill="#FCECC8" d="M7.51,8.009c0,0.527-0.427,0.954-0.954,0.954c-0.19,0-0.367-0.055-0.515-0.151l1.067-1.581
									C7.351,7.404,7.51,7.688,7.51,8.009z"/>
							</g>
						</g>
					</g>
				</g>
			</g>
		</g>
		<g>
			<g>
				<g>
					<g>
						<g>
							<g>
								<path fill="#FCD578" d="M4.352,6.796c0,0.527-0.427,0.954-0.954,0.954c-0.19,0-0.367-0.055-0.515-0.151
									C2.619,7.43,2.445,7.133,2.445,6.796c0-0.527,0.427-0.954,0.954-0.954c0.206,0,0.396,0.065,0.552,0.176
									C4.194,6.191,4.352,6.475,4.352,6.796z"/>
							</g>
						</g>
					</g>
				</g>
			</g>
		</g>
		<g>
			<g>
				<g>
					<g>
						<g>
							<g>
								<path fill="#FCECC8" d="M4.352,6.796c0,0.527-0.427,0.954-0.954,0.954c-0.19,0-0.367-0.055-0.515-0.151L3.95,6.018
									C4.194,6.191,4.352,6.475,4.352,6.796z"/>
							</g>
						</g>
					</g>
				</g>
			</g>
		</g>
		<g>
			<g>
				<g>
					<g>
						<g>
							<g>
								<path fill="#3A2F85" d="M2.644,6.703c0.901,0,1.634-0.733,1.634-1.634S3.545,3.434,2.644,3.434
									c-0.272,0-0.542,0.068-0.779,0.197C1.759,3.689,1.72,3.821,1.777,3.927c0.057,0.106,0.19,0.145,0.295,0.087
									c0.174-0.095,0.372-0.145,0.571-0.145c0.661,0,1.199,0.538,1.199,1.199S3.305,6.267,2.644,6.267S1.445,5.73,1.445,5.068
									c0-0.24,0.071-0.472,0.205-0.67c0.067-0.1,0.041-0.235-0.059-0.302c-0.1-0.067-0.235-0.041-0.302,0.059
									c-0.183,0.27-0.279,0.586-0.279,0.914C1.009,5.97,1.743,6.703,2.644,6.703z"/>
							</g>
						</g>
					</g>
				</g>
			</g>
		</g>
		<g>
			<g>
				<g>
					<g>
						<g>
							<g>
								<path fill="#F3F3F3" d="M2.129,9.926c0,0,1.844,0.768,4.58-0.13C8.968,9.054,8.263,6.543,7.948,5.69
									C7.944,5.677,7.939,5.665,7.935,5.654C7.686,4.992,7.862,4.234,8.405,3.78c0.238-0.199,0.534-0.335,0.869-0.378
									c0.416-0.053,0.823,0.055,1.152,0.277c0.14,0.094,0.265,0.209,0.372,0.341c0.141,0.175,0.248,0.379,0.31,0.606
									c0.063,0.232,0.075,0.465,0.043,0.686c-0.028,0.194-0.089,0.379-0.179,0.548c0.259,0.183,0.502,0.387,0.727,0.612
									l0.131,0.151c0.034,0.04,0.072,0.075,0.112,0.106c0.637,0.72,1.098,1.612,1.3,2.622c0.609,3.053-1.379,6.021-4.437,6.618
									c-0.799,0.156-1.593,0.132-2.342-0.043c-2.057-0.481-3.763-2.108-4.232-4.295C2.107,11.056,2.077,10.482,2.129,9.926z"/>
							</g>
						</g>
					</g>
				</g>
			</g>
		</g>
		<g>
			<g>
				<g>
					<g>
						<g>
							<g>
								<g>
									<path fill="#CDCCCC" d="M13.241,9.353c-0.202-1.01-0.662-1.903-1.3-2.622c-0.04-0.031-0.078-0.066-0.112-0.106
										l-0.131-0.151c-0.225-0.225-0.468-0.429-0.727-0.612c0.09-0.169,0.152-0.354,0.179-0.548
										c0.032-0.221,0.02-0.454-0.043-0.686c-0.062-0.227-0.169-0.431-0.31-0.606c-0.106-0.132-0.232-0.247-0.372-0.341
										c-0.329-0.223-0.736-0.33-1.152-0.277c-0.086,0.011-0.17,0.029-0.251,0.051C9.196,3.504,9.359,3.58,9.507,3.68
										c0.14,0.094,0.265,0.209,0.372,0.341c0.141,0.175,0.248,0.379,0.31,0.606c0.063,0.232,0.075,0.465,0.043,0.686
										c-0.028,0.194-0.089,0.379-0.179,0.548c0.259,0.183,0.502,0.387,0.727,0.612l0.131,0.151
										c0.034,0.04,0.072,0.075,0.112,0.106c0.637,0.72,1.098,1.612,1.3,2.622c0.609,3.053-1.379,6.021-4.437,6.618
										c-0.204,0.04-0.408,0.068-0.61,0.085c0.5,0.041,1.014,0.016,1.529-0.085C11.862,15.374,13.85,12.406,13.241,9.353z"/>
								</g>
							</g>
						</g>
					</g>
				</g>
			</g>
			<g>
				<g>
					<g>
						<g>
							<g>
								<g>
									<path fill="#CDCCCC" d="M3.637,10.217c-0.953-0.06-1.508-0.291-1.508-0.291C2.122,10,2.117,10.076,2.113,10.151
										C2.509,10.213,3.025,10.254,3.637,10.217z"/>
								</g>
							</g>
						</g>
					</g>
				</g>
			</g>
		</g>
		<g>
			<g>
				<g>
					<g>
						<g>
							<g>
								<path fill="#3A2F85" d="M7.745,16.194c-0.436,0-0.87-0.05-1.298-0.151c-1.049-0.245-2.008-0.778-2.773-1.542
									c-0.786-0.784-1.323-1.77-1.555-2.852c-0.123-0.577-0.158-1.164-0.104-1.746c0.004-0.041,0.027-0.078,0.062-0.099
									c0.035-0.021,0.078-0.024,0.116-0.009c0.001,0,0.091,0.038,0.258,0.085c0,0,0,0,0.001,0c0,0,0,0,0,0
									C2.458,9.882,2.464,9.884,2.47,9.885L2.489,9.89c0,0,0.001,0,0.001,0c0.032,0.009,0.064,0.017,0.096,0.025L2.729,9.95
									l0.054,0.012c0.019,0.004,0.038,0.008,0.058,0.012l0.004,0.001C2.853,9.975,2.862,9.977,2.87,9.978L2.878,9.98
									c0.008,0.001,0.015,0.003,0.023,0.004l0.041,0.007c0.007,0.001,0.014,0.003,0.022,0.004l0.01,0.002
									C2.98,9.998,2.988,10,2.995,10.001l0.01,0.002c0.008,0.001,0.016,0.003,0.024,0.004l0.009,0.001
									c0.008,0.001,0.017,0.003,0.025,0.004l0.008,0.001c0.01,0.002,0.02,0.003,0.03,0.005l0.004,0.001
									c0.035,0.005,0.071,0.01,0.108,0.015l0.004,0.001c0.011,0.001,0.021,0.003,0.032,0.004l0.008,0.001
									c0.01,0.001,0.019,0.002,0.029,0.004l0.01,0.001c0.009,0.001,0.019,0.002,0.028,0.003l0.011,0.001
									c0.009,0.001,0.018,0.002,0.028,0.003l0.011,0.001c0.009,0.001,0.019,0.002,0.028,0.003l0.011,0.001
									c0.01,0.001,0.02,0.002,0.03,0.003l0.01,0.001c0.011,0.001,0.022,0.002,0.033,0.003l0.007,0.001
									c0.041,0.004,0.083,0.007,0.125,0.01l0.005,0c0.012,0.001,0.025,0.002,0.037,0.002C4.636,10.139,5.654,10,6.684,9.662
									c0.42-0.138,0.756-0.349,1-0.626c0.047-0.054,0.129-0.059,0.183-0.012C7.92,9.07,7.926,9.152,7.878,9.206
									c-0.275,0.313-0.65,0.549-1.114,0.702c-1.061,0.348-2.112,0.492-3.124,0.428c-0.013-0.001-0.026-0.002-0.038-0.003l-0.005,0
									c-0.043-0.003-0.087-0.006-0.13-0.01L3.46,10.321c-0.011-0.001-0.023-0.002-0.034-0.003l-0.01-0.001
									c-0.01-0.001-0.021-0.002-0.031-0.003l-0.011-0.001c-0.01-0.001-0.02-0.002-0.03-0.003l-0.011-0.001
									c-0.01-0.001-0.019-0.002-0.029-0.003l-0.011-0.001c-0.01-0.001-0.019-0.002-0.029-0.003L3.255,10.3
									c-0.01-0.001-0.02-0.002-0.03-0.004l-0.008-0.001c-0.011-0.001-0.022-0.003-0.033-0.004L3.179,10.29
									c-0.038-0.005-0.075-0.01-0.112-0.016l-0.004-0.001c-0.01-0.002-0.021-0.003-0.031-0.005l-0.008-0.001
									c-0.009-0.001-0.018-0.003-0.027-0.004l-0.01-0.002c-0.008-0.001-0.017-0.003-0.025-0.004l-0.01-0.002
									c-0.008-0.001-0.016-0.003-0.024-0.004l-0.01-0.002c-0.007-0.001-0.015-0.003-0.023-0.004l-0.042-0.008
									c-0.008-0.001-0.016-0.003-0.024-0.004l-0.008-0.001c-0.009-0.002-0.018-0.003-0.027-0.005l-0.004-0.001
									c-0.021-0.004-0.041-0.008-0.06-0.012l-0.186-0.042l-0.022-0.005c-0.035-0.009-0.069-0.018-0.102-0.027c0,0-0.001,0-0.001,0
									L2.4,10.134c-0.006-0.002-0.012-0.003-0.018-0.005c0,0,0,0-0.001,0l0,0c-0.046-0.013-0.086-0.025-0.122-0.037
									c-0.032,0.501,0.006,1.006,0.112,1.502c0.221,1.033,0.735,1.975,1.485,2.723c0.731,0.73,1.648,1.239,2.65,1.473
									c0.688,0.162,1.392,0.187,2.091,0.077l0.017-0.003c0.024-0.004,0.048-0.008,0.073-0.012l0.018-0.003
									c0.033-0.006,0.061-0.011,0.088-0.016c0.751-0.147,1.448-0.44,2.072-0.872c0.602-0.417,1.109-0.943,1.505-1.563
									c0.526-0.823,0.823-1.771,0.861-2.741c0.003-0.071,0.063-0.127,0.134-0.124c0.071,0.003,0.127,0.063,0.124,0.134
									c-0.039,1.016-0.351,2.009-0.901,2.87c-0.415,0.649-0.945,1.2-1.576,1.637c-0.653,0.452-1.383,0.759-2.17,0.913
									c-0.028,0.005-0.058,0.011-0.092,0.017l-0.019,0.003c-0.025,0.004-0.051,0.009-0.076,0.013l-0.018,0.003
									C8.341,16.17,8.043,16.194,7.745,16.194z"/>
							</g>
						</g>
					</g>
				</g>
			</g>
		</g>
		<g>
			<g>
				<g>
					<g>
						<g>
							<g>
								<path fill="#3A2F85" d="M13.255,9.471c-0.06,0-0.114-0.043-0.127-0.104c-0.189-0.949-0.626-1.831-1.262-2.553
									c-0.043-0.034-0.084-0.073-0.121-0.116l-0.128-0.148c-0.216-0.216-0.454-0.416-0.707-0.594
									c-0.053-0.038-0.07-0.109-0.039-0.167c0.084-0.158,0.14-0.328,0.165-0.505c0.009-0.064,0.015-0.13,0.016-0.194
									c0.003-0.147-0.016-0.295-0.055-0.44c-0.056-0.205-0.152-0.393-0.286-0.559c-0.097-0.121-0.213-0.227-0.343-0.315
									C10.053,3.564,9.676,3.473,9.305,3.52C9.292,3.522,9.279,3.524,9.263,3.526L9.259,3.527C9.255,3.528,9.25,3.528,9.246,3.529
									c0,0,0,0-0.001,0C8.97,3.575,8.713,3.692,8.502,3.869C8.01,4.281,7.836,4.975,8.07,5.597
									c0.005,0.012,0.009,0.024,0.014,0.037c0.112,0.303,0.26,0.777,0.328,1.308c0.084,0.654,0.025,1.223-0.175,1.69
									c-0.028,0.066-0.104,0.096-0.17,0.068c-0.066-0.028-0.096-0.104-0.068-0.17C8.18,8.106,8.233,7.583,8.155,6.975
									C8.09,6.468,7.949,6.015,7.841,5.724C7.837,5.712,7.833,5.7,7.828,5.689C7.555,4.963,7.759,4.152,8.336,3.67
									c0.246-0.206,0.546-0.343,0.866-0.397c0,0,0.001,0,0.001,0C9.208,3.273,9.214,3.272,9.22,3.271L9.223,3.27
									c0.018-0.003,0.034-0.005,0.049-0.007c0.434-0.055,0.874,0.051,1.241,0.298c0.152,0.103,0.287,0.227,0.4,0.368
									c0.156,0.194,0.269,0.414,0.334,0.653c0.046,0.168,0.068,0.341,0.065,0.512c-0.001,0.076-0.008,0.152-0.018,0.227
									c-0.024,0.17-0.072,0.333-0.143,0.488c0.233,0.171,0.452,0.36,0.654,0.561c0.002,0.002,0.004,0.005,0.006,0.007l0.131,0.151
									c0.029,0.033,0.06,0.062,0.093,0.087c0.007,0.005,0.013,0.011,0.019,0.017c0.671,0.757,1.131,1.685,1.33,2.683
									c0.014,0.07-0.031,0.138-0.102,0.152C13.272,9.47,13.264,9.471,13.255,9.471z"/>
							</g>
						</g>
					</g>
				</g>
			</g>
		</g>
		<g>
			<g>
				<g>
					<g>
						<g>
							<g>
								<circle fill="#3A2F85" cx="10.058" cy="4.833" r="0.306"/>
							</g>
						</g>
					</g>
				</g>
			</g>
		</g>
		<g>
			<g>
				<g>
					<g>
						<g>
							<g>
								<path fill="#F37478" d="M8.743,10.791c1.649-1.286,3.743,0.973,2.31,2.496c-0.019,0.02-0.039,0.041-0.059,0.061
									c-0.98,0.98-4.401,1.517-6.82-0.449c0,0,2.654-0.408,3.594-1.348L8.743,10.791z"/>
							</g>
						</g>
					</g>
				</g>
			</g>
		</g>
		<g>
			<g>
				<g>
					<g>
						<g>
							<g>
								<path fill="#3A2F85" d="M8.066,14.358c-0.681,0-1.347-0.1-1.981-0.298c-0.739-0.23-1.409-0.587-1.991-1.061
									c-0.04-0.032-0.057-0.085-0.043-0.134c0.013-0.049,0.055-0.086,0.105-0.094c0.026-0.004,2.623-0.413,3.522-1.311
									c0.004-0.004,0.008-0.007,0.012-0.011l0.975-0.76c0.056-0.044,0.138-0.034,0.182,0.022c0.044,0.056,0.034,0.138-0.022,0.182
									l-0.969,0.755c-0.407,0.403-1.147,0.757-2.2,1.053c-0.468,0.132-0.898,0.222-1.168,0.273
									c0.501,0.365,1.064,0.647,1.676,0.838c0.627,0.196,1.287,0.292,1.962,0.286c0.599-0.005,1.185-0.093,1.693-0.254
									c0.471-0.149,0.857-0.358,1.086-0.588c0.019-0.019,0.038-0.038,0.056-0.058c0.222-0.236,0.362-0.498,0.417-0.781
									c0.049-0.253,0.026-0.52-0.066-0.773c-0.212-0.584-0.755-1.024-1.349-1.095c-0.071-0.008-0.122-0.073-0.113-0.144
									c0.008-0.071,0.073-0.122,0.144-0.113c0.344,0.041,0.676,0.185,0.958,0.418c0.276,0.227,0.485,0.519,0.603,0.846
									c0.231,0.636,0.084,1.3-0.406,1.82c-0.02,0.021-0.041,0.043-0.062,0.063c-0.262,0.262-0.674,0.488-1.191,0.652
									c-0.533,0.169-1.145,0.261-1.769,0.267C8.106,14.358,8.086,14.358,8.066,14.358z"/>
							</g>
						</g>
					</g>
				</g>
			</g>
		</g>
		<g>
			<g>
				<g>
					<g>
						<g>
							<g>
								<path fill="#FCD578" d="M4.156,5.068c0,0.827-0.67,1.496-1.496,1.496c-0.298,0-0.575-0.087-0.808-0.237
									c-0.414-0.266-0.688-0.731-0.688-1.26c0-0.826,0.67-1.496,1.496-1.496c0.323,0,0.621,0.102,0.866,0.275
									C3.907,4.119,4.156,4.565,4.156,5.068z"/>
							</g>
						</g>
					</g>
				</g>
			</g>
		</g>
		<g>
			<g>
				<g>
					<g>
						<g>
							<g>
								<path fill="#FCECC8" d="M4.156,5.068c0,0.827-0.67,1.496-1.496,1.496c-0.298,0-0.575-0.087-0.808-0.237l1.674-2.481
									C3.907,4.119,4.156,4.565,4.156,5.068z"/>
							</g>
						</g>
					</g>
				</g>
			</g>
		</g>
		<g>
			<g>
				<g>
					<g>
						<g>
							<g>
								<path fill="#010101" d="M1.98,4.523c0.062-0.013,0.152-0.02,0.237-0.02c0.132,0,0.217,0.024,0.277,0.078
									c0.048,0.043,0.075,0.108,0.075,0.182c0,0.126-0.079,0.21-0.18,0.244v0.004c0.074,0.026,0.118,0.094,0.141,0.193
									C2.56,5.338,2.583,5.43,2.603,5.467H2.475C2.46,5.44,2.438,5.358,2.411,5.239C2.383,5.107,2.332,5.057,2.22,5.053H2.103
									v0.414H1.98V4.523z M2.103,4.959H2.23c0.132,0,0.216-0.072,0.216-0.182c0-0.123-0.089-0.177-0.22-0.179
									c-0.06,0-0.102,0.006-0.122,0.011V4.959z"/>
							</g>
						</g>
					</g>
				</g>
			</g>
			<g>
				<g>
					<g>
						<g>
							<g>
								<path fill="#010101" d="M2.753,5.004c0-0.088-0.003-0.159-0.006-0.224H2.86l0.006,0.118h0.003
									C2.92,4.814,3,4.764,3.113,4.764c0.166,0,0.291,0.141,0.291,0.349c0,0.247-0.15,0.369-0.312,0.369
									c-0.091,0-0.17-0.04-0.211-0.108H2.877v0.373H2.753V5.004z M2.877,5.187c0,0.018,0.003,0.035,0.006,0.051
									C2.905,5.325,2.981,5.385,3.07,5.385c0.132,0,0.209-0.108,0.209-0.265c0-0.138-0.072-0.255-0.204-0.255
									c-0.085,0-0.165,0.061-0.189,0.155C2.881,5.034,2.877,5.053,2.877,5.07V5.187z"/>
							</g>
						</g>
					</g>
				</g>
			</g>
		</g>
		<g>
			<g>
				<g>
					<g>
						<g>
							<g>
								<path fill="#3A2F85" d="M4.305,12.178H2.493c-0.071,0-0.129-0.058-0.129-0.129s0.058-0.129,0.129-0.129h1.811
									c0.071,0,0.129,0.058,0.129,0.129S4.376,12.178,4.305,12.178z"/>
							</g>
						</g>
					</g>
				</g>
			</g>
		</g>
		<g>
			<g>
				<g>
					<g>
						<g>
							<g>
								<path fill="#3A2F85" d="M3.387,11.09H3.154c-0.071,0-0.129-0.058-0.129-0.129c0-0.071,0.058-0.129,0.129-0.129h0.233
									c0.071,0,0.129,0.058,0.129,0.129C3.516,11.032,3.458,11.09,3.387,11.09z"/>
							</g>
						</g>
					</g>
				</g>
			</g>
		</g>
		<g>
			<g>
				<g>
					<g>
						<g>
							<g>
								<path fill="#3A2F85" d="M2.869,11.09h-0.66c-0.071,0-0.129-0.058-0.129-0.129c0-0.071,0.058-0.129,0.129-0.129h0.66
									c0.071,0,0.129,0.058,0.129,0.129C2.998,11.032,2.94,11.09,2.869,11.09z"/>
							</g>
						</g>
					</g>
				</g>
			</g>
		</g>
		<g>
			<g>
				<g>
					<g>
						<g>
							<g>
								<path fill="#3A2F85" d="M3.827,13.573H2.985c-0.071,0-0.129-0.058-0.129-0.129s0.058-0.129,0.129-0.129h0.841
									c0.071,0,0.129,0.058,0.129,0.129S3.898,13.573,3.827,13.573z"/>
							</g>
						</g>
					</g>
				</g>
			</g>
		</g>
		<g>
			<g>
				<g>
					<g>
						<g>
							<path fill="#FCD578" d="M8.505,8.699C7.99,8.589,7.483,8.918,7.373,9.433c-0.07,0.33,0.039,0.656,0.262,0.877l1.373-1.324
								C8.879,8.845,8.706,8.742,8.505,8.699z"/>
						</g>
					</g>
				</g>
			</g>
		</g>
		<g>
			<g>
				<g>
					<g>
						<g>
							<path fill="#FCECC8" d="M8.505,8.699c0,0-0.504,1.279-0.97,1.538c0,0,0.694,0.034,1.473-1.252
								C9.008,8.986,8.75,8.662,8.505,8.699z"/>
						</g>
					</g>
				</g>
			</g>
		</g>
		<g>
			<g>
				<g>
					<g>
						<g>
							<path fill="#3A2F85" d="M7.574,10.371C7.321,10.12,7.215,9.763,7.289,9.415c0.12-0.561,0.673-0.92,1.234-0.8
								C8.735,8.66,8.925,8.768,9.072,8.927L8.945,9.044c-0.122-0.133-0.28-0.223-0.458-0.261c-0.468-0.1-0.93,0.2-1.029,0.668
								c-0.062,0.29,0.027,0.588,0.238,0.797L7.574,10.371z"/>
						</g>
					</g>
				</g>
			</g>
		</g>
		<g>
			<g>
				<g>
					<g>
						<g>
							<g>
								<path fill="#3A2F85" d="M7.501,10.457c-0.051,0-0.099-0.03-0.12-0.08c-0.027-0.066,0.004-0.142,0.07-0.169
									c1.25-0.52,1.485-1.464,1.487-1.474c0.016-0.07,0.086-0.113,0.156-0.096c0.07,0.016,0.113,0.086,0.096,0.156
									c-0.003,0.011-0.068,0.281-0.305,0.62c-0.215,0.308-0.622,0.737-1.335,1.034C7.534,10.453,7.518,10.457,7.501,10.457z"/>
							</g>
						</g>
					</g>
				</g>
			</g>
		</g>
		<g>
			<g>
				<g>
					<g>
						<g>
							<path fill="none" stroke="#3A2F85" stroke-width="30" stroke-miterlimit="10" d="M8.312,9.642"/>
						</g>
					</g>
				</g>
			</g>
		</g>
		<g>
			<g>
				<g>
					<g>
						<g>
							<path fill="none" stroke="#3A2F85" stroke-width="30" stroke-miterlimit="10" d="M8.312,9.642"/>
						</g>
					</g>
				</g>
			</g>
		</g>
		<g>
			<g>
				<g>
					<g>
						<g>
							<path fill="none" stroke="#3A2F85" stroke-width="30" stroke-miterlimit="10" d="M8.312,9.642"/>
						</g>
					</g>
				</g>
			</g>
		</g>
	</g>
</g>
</svg>
